<svg width="433" height="249" viewBox="0 0 433 249" fill="none" xmlns="http://www.w3.org/2000/svg">
<g clip-path="url(#clip0_133_858)">
<g filter="url(#filter0_dddd_133_858)">
<rect width="433" height="249" rx="38" fill="url(#paint0_linear_133_858)"/>
</g>
<g clip-path="url(#clip1_133_858)">
<path fill-rule="evenodd" clip-rule="evenodd" d="M144.036 121.339C147.71 119.377 150.034 115.692 150.034 111.507C150.034 109.066 149.247 106.988 147.758 105.496C146.042 103.715 143.961 103.05 140.088 103.05L127.39 103.049L127.266 103.841L122.314 135.311C121.949 137.612 122.254 141.661 127.306 141.683L127.305 141.686H136.031C143.458 141.686 148.644 136.512 148.644 129.107C148.644 125.509 146.902 122.689 144.036 121.339ZM139.504 134.738C138.126 135.69 137.221 135.966 133.862 135.966H128.67L130.383 124.864H135.864C141.162 124.864 141.877 127.206 141.877 129.496C141.877 131.79 141.012 133.701 139.504 134.738ZM136.197 118.812H131.344L132.936 108.767H138.422C141.584 108.767 142.129 109.059 142.616 109.723C143.037 110.314 143.212 110.963 143.212 111.951C143.212 116.055 140.393 118.812 136.197 118.812ZM168.76 125.077C174.27 124.018 178.554 118.694 178.554 112.565C178.554 106.429 174.727 103.049 167.777 103.049H155.741L155.617 103.841L150.536 136.534C150.308 138.207 149.046 141.686 155.11 141.683L155.698 141.685H156.121L156.245 140.891L158.57 125.922H162.075L169.493 141.158L169.749 141.685H177.079L176.398 140.327L168.76 125.077ZM159.474 120.204L161.289 108.768H166.441C171.197 108.768 172.068 110.047 172.068 112.565C172.068 117.134 168.957 120.204 164.328 120.204H159.474ZM200.293 121.339C203.967 119.377 206.291 115.692 206.291 111.507C206.291 109.066 205.505 106.989 204.015 105.496C202.299 103.715 200.217 103.05 196.347 103.05L183.646 103.049L183.523 103.841L178.582 135.243C178.256 137.524 178.465 141.661 183.566 141.683L183.565 141.686H192.287C199.715 141.686 204.902 136.512 204.902 129.107C204.902 125.509 203.159 122.689 200.293 121.339ZM195.761 134.74C194.385 135.69 193.477 135.966 190.119 135.966H184.928L186.639 124.864H192.12C197.421 124.864 198.135 127.206 198.135 129.496C198.135 131.79 197.269 133.701 195.761 134.74ZM192.454 118.812H187.601L189.194 108.767H194.678C197.841 108.767 198.385 109.059 198.874 109.723C199.295 110.314 199.47 110.963 199.47 111.951C199.47 116.055 196.651 118.812 192.454 118.812Z" fill="white"/>
<path fill-rule="evenodd" clip-rule="evenodd" d="M80.4638 103.042L79.9065 106.614C87.8188 108.224 94.8768 112.218 100.289 117.822L108.43 112.47C108.43 112.47 109.369 111.835 109.805 112.365C109.805 112.365 110.231 112.777 109.413 113.66L102.729 120.604C107.437 126.489 110.49 133.752 111.186 141.684H114.994L121.03 103.04L80.4638 103.042Z" fill="white"/>
<path fill-rule="evenodd" clip-rule="evenodd" d="M88.258 130.568L87.8846 130.117L96.5886 120.322C91.902 115.68 85.9149 112.357 79.2274 110.957L75.6809 133.668C75.061 137.927 75.8353 141.684 82.9218 141.684L106.783 141.685C106.121 134.982 103.565 128.828 99.6532 123.777L88.258 130.568Z" fill="white"/>
<path d="M80.356 96.855L82.7652 84.7571H84.8L83.7257 90.1701L83.0909 92.4366L82.7652 94.4906L82.2932 96.855H80.356ZM85.6138 96.9692C84.8977 96.9692 84.2792 96.8442 83.7581 96.5942C83.2373 96.3334 82.8357 95.9527 82.5536 95.4527C82.2714 94.9527 82.1304 94.3332 82.1304 93.594C82.1304 92.7788 82.2281 92.0342 82.4234 91.3603C82.6296 90.6755 82.928 90.0887 83.3189 89.5995C83.7203 89.0995 84.1976 88.7191 84.7511 88.458C85.3156 88.1864 85.9558 88.0506 86.6719 88.0506C87.3883 88.0506 88.0338 88.2026 88.6092 88.507C89.1843 88.8008 89.6402 89.2353 89.9765 89.8114C90.3239 90.3765 90.4973 91.0613 90.4973 91.8657C90.4973 92.6049 90.3725 93.2842 90.123 93.9038C89.8842 94.5234 89.5425 95.0615 89.0976 95.5179C88.6516 95.9752 88.1207 96.3409 87.5347 96.5942C86.9488 96.8442 86.3086 96.9692 85.6138 96.9692ZM85.4512 95.2244C86.0371 95.2244 86.5525 95.0886 86.9977 94.8172C87.4425 94.5344 87.7953 94.1484 88.0557 93.6592C88.3161 93.1703 88.4463 92.6051 88.4463 91.9636C88.4463 91.2897 88.2456 90.7572 87.8442 90.3657C87.4425 89.9745 86.8783 89.7789 86.1511 89.7789C85.576 89.7789 85.0606 89.9201 84.6047 90.2028C84.1595 90.4745 83.807 90.8549 83.5466 91.3441C83.2862 91.8332 83.156 92.3984 83.156 93.0399C83.156 93.7136 83.3567 94.2461 83.7581 94.6378C84.1595 95.0288 84.7241 95.2244 85.4512 95.2244ZM95.4223 96.9692C94.717 96.9692 94.0714 96.8171 93.4852 96.5128C92.9101 96.2084 92.4488 95.7736 92.1017 95.2081C91.7651 94.6321 91.5971 93.9419 91.5971 93.1376C91.5971 92.3984 91.7165 91.719 91.955 91.0995C92.2046 90.4799 92.552 89.9418 92.9971 89.4853C93.4369 89.0324 93.9627 88.672 94.5435 88.4256C95.1403 88.1756 95.7915 88.0506 96.4965 88.0506C97.224 88.0506 97.8479 88.181 98.3687 88.4418C98.9006 88.7026 99.302 89.0995 99.5732 89.632C99.8447 90.1539 99.9695 90.8059 99.9476 91.5886C99.926 92.6646 99.7307 93.6105 99.3617 94.4257C98.9927 95.2298 98.4773 95.855 97.8153 96.3006C97.1532 96.7465 96.3555 96.9692 95.4223 96.9692ZM95.9433 95.2244C96.5292 95.2244 97.0446 95.0886 97.4898 94.8172C97.9346 94.5344 98.2874 94.1484 98.5478 93.6592C98.8082 93.1703 98.9384 92.6051 98.9384 91.9636C98.9384 91.2897 98.7377 90.7572 98.3363 90.3657C97.9346 89.9745 97.3704 89.7789 96.6432 89.7789C96.0681 89.7789 95.5525 89.9201 95.0968 90.2028C94.6516 90.4745 94.2991 90.8549 94.0387 91.3441C93.7783 91.8332 93.6481 92.3984 93.6481 93.0399C93.6481 93.7136 93.8488 94.2461 94.2502 94.6378C94.6516 95.0295 95.2162 95.2244 95.9433 95.2244ZM98.0756 96.855L98.4665 94.8659L99.0197 92.5507L99.2966 90.2191L99.7034 88.1485H101.738L100.013 96.855H98.0756ZM109.137 88.0506C109.886 88.0506 110.521 88.2026 111.042 88.507C111.563 88.8114 111.926 89.2624 112.133 89.8603C112.35 90.4474 112.372 91.1701 112.198 92.0288L111.237 96.855H109.203L110.147 92.0778C110.288 91.3714 110.223 90.8224 109.952 90.4309C109.68 90.0289 109.186 89.8278 108.47 89.8278C107.721 89.8278 107.103 90.0343 106.615 90.4474C106.126 90.8603 105.795 91.4907 105.622 92.3386L104.71 96.855H102.675L104.401 88.1485H106.338L105.849 90.6268L105.524 89.8441C105.936 89.2245 106.452 88.7735 107.07 88.491C107.7 88.1972 108.389 88.0506 109.137 88.0506ZM118.181 96.9692C117.324 96.9692 116.569 96.8115 115.918 96.4963C115.278 96.1702 114.784 95.7246 114.437 95.1594C114.09 94.5832 113.916 93.9095 113.916 93.1376C113.916 92.1592 114.139 91.2897 114.583 90.5289C115.028 89.757 115.641 89.1539 116.423 88.7191C117.204 88.2732 118.105 88.0506 119.125 88.0506C120.004 88.0506 120.758 88.2245 121.388 88.5722C122.028 88.9093 122.522 89.4147 122.869 90.0887L121.127 90.9856C120.932 90.5724 120.65 90.268 120.281 90.0724C119.923 89.8766 119.483 89.7786 118.962 89.7786C118.398 89.7786 117.888 89.9204 117.432 90.2028C116.976 90.4745 116.618 90.8549 116.358 91.3441C116.097 91.8332 115.967 92.3984 115.967 93.0399C115.967 93.7136 116.168 94.2461 116.569 94.6378C116.971 95.0288 117.541 95.2246 118.279 95.2246C118.756 95.2246 119.201 95.1267 119.613 94.9311C120.026 94.7352 120.373 94.4311 120.655 94.018L122.153 95.0288C121.751 95.6375 121.198 96.1159 120.492 96.4638C119.787 96.8006 119.016 96.9692 118.181 96.9692ZM127.463 96.9692C126.617 96.9692 125.874 96.8115 125.233 96.4963C124.604 96.1702 124.115 95.7246 123.768 95.1594C123.421 94.5832 123.247 93.9095 123.247 93.1376C123.247 92.1592 123.47 91.2897 123.915 90.5289C124.36 89.757 124.967 89.1539 125.738 88.7191C126.519 88.2732 127.409 88.0506 128.407 88.0506C129.265 88.0506 130.008 88.208 130.638 88.5235C131.278 88.8276 131.772 89.2681 132.119 89.8441C132.466 90.4093 132.64 91.0832 132.64 91.8657C132.64 92.8332 132.417 93.7028 131.972 94.4747C131.528 95.2463 130.914 95.855 130.133 96.3006C129.363 96.7465 128.473 96.9692 127.463 96.9692ZM127.594 95.2244C128.18 95.2244 128.695 95.0886 129.14 94.8172C129.585 94.5344 129.938 94.1484 130.198 93.6592C130.459 93.1703 130.589 92.6051 130.589 91.9636C130.589 91.2897 130.388 90.7572 129.987 90.3657C129.585 89.9742 129.021 89.7789 128.294 89.7789C127.718 89.7789 127.203 89.9201 126.747 90.2028C126.302 90.4745 125.95 90.8549 125.689 91.3441C125.429 91.8332 125.298 92.3984 125.298 93.0399C125.298 93.7244 125.499 94.2625 125.901 94.6538C126.302 95.0344 126.867 95.2244 127.594 95.2244Z" fill="white"/>
</g>
<path fill-rule="evenodd" clip-rule="evenodd" d="M312.129 179.204C297.936 173.665 286.549 165.989 278.603 155.362C270.348 144.302 266.275 130.073 266.275 110.251V70.0088H357.983V110.251C357.983 130.073 353.91 144.301 345.655 155.362C337.707 165.989 326.321 173.665 312.129 179.204Z" fill="black"/>
<path fill-rule="evenodd" clip-rule="evenodd" d="M312.129 176.055C305.757 173.502 299.946 170.515 294.786 166.913H329.471C324.311 170.515 318.501 173.502 312.129 176.055ZM281.282 153.951C278.547 150.277 276.249 146.167 274.402 141.569H349.854C348.008 146.167 345.709 150.276 342.975 153.951H281.282ZM270.438 127.142C269.804 123.376 269.406 119.357 269.243 115.067H354.995C354.851 119.358 354.452 123.376 353.818 127.142H270.438ZM313.65 86.8804H355.087V101.091H313.65V86.8804ZM269.171 72.9235H310.735V112.152H269.171V72.9235Z" fill="#CD3529"/>
<path fill-rule="evenodd" clip-rule="evenodd" d="M296.868 110.396C295.854 110.07 294.623 107.319 294.677 105.997V105.816C293.355 103.571 292.016 101.779 291.093 100.657L291.111 106.467C291.038 108.423 290.549 109.671 289.138 110.342C290.296 110.505 292.071 110.74 293.121 109.183C293.411 109.852 295.402 110.902 296.868 110.396ZM300.434 97.4527C300.796 98.2674 301.031 99.6796 298.805 101.471C301.52 101.128 302.751 100.114 302.878 98.792C303.095 96.3486 302.281 96.3299 302.842 93.0176C303.023 91.8954 303.728 91.1168 304.941 90.1391C302.407 90.5187 300.851 91.7678 300.054 94.5742L294.677 94.5561V84.9976H296.361C296.198 83.9476 295.89 82.9157 295.257 81.7574H292.668C291.365 81.7574 290.803 81.2502 289.536 81.7033C290.459 82.2466 291.111 82.9524 291.111 83.7491V94.7559C292.324 95.3714 293.574 96.3666 294.551 97.4527H300.434ZM302.733 84.9976H305.485C305.485 86.5361 307.259 89.5777 309.884 89.6679C308.562 87.7672 308.037 86.4272 308.617 83.8206C309.938 80.4175 308.906 77.702 307.367 77.3217C307.657 78.2628 307.856 81.051 306.263 81.7749H301.159C301.647 83.4049 302.371 84.7262 302.733 84.9976ZM290.297 104.585C279.418 108.477 274.583 103.191 271.597 95.3167C271.18 94.3208 271.144 93.6331 269.967 92.8912C271.289 92.4568 271.524 91.6421 271.723 90.8094C272.466 85.4868 275.76 80.9975 280.937 79.3501V81.9753C277.28 83.8038 275.307 88.6733 275.434 93.2167C275.597 98.3576 280.394 103.698 285.264 103.571C286.857 103.535 288.667 103.354 290.296 102.142L290.297 104.585ZM286.151 78.4993C286.948 78.4632 287.799 78.4265 288.703 78.4084C288.504 79.5673 288.088 84.0565 289.898 85.577C289.554 86.3189 288.613 87.1336 287.708 87.1161C287.092 87.0981 286.912 86.8261 286.585 86.3736C286.44 86.1564 286.295 85.9392 286.15 85.704L286.151 78.4993ZM285.318 97.1265V102.72C284.956 102.774 284.522 102.774 283.979 102.666C283.4 102.557 282.567 102.34 281.752 101.815V78.4445C281.752 76.9962 280.666 75.711 278.837 74.9691C280.611 73.8283 284.014 74.8969 284.576 76.1821C286.35 75.0239 288.468 74.4805 290.568 74.4986C294.568 74.5347 298.496 76.6707 299.999 80.7442C300.777 82.8983 301.176 85.089 302.769 85.9037C302.351 86.1242 301.987 86.433 301.701 86.8087C300.886 87.8773 300.361 89.488 299.021 91.4616C298.496 92.2583 297.845 93.0182 297.066 93.7607H295.473V91.8593C296.595 90.0675 297.211 87.8045 297.175 85.6137C297.139 82.4097 294.658 77.5221 288.974 77.196C287.345 77.1051 285.951 77.5943 285.318 77.9927V94.1945C288.649 94.1945 291.056 95.3714 292.849 96.946C294.568 98.4485 295.763 100.386 296.831 102.395C298.352 105.255 299.402 107.772 301.248 107.717C302.642 107.645 303.294 106.975 303.91 106.106C304.525 108.966 302.316 110.161 300.959 110.197C299.511 110.215 297.773 108.984 296.668 107.391C294.985 105.002 293.374 101.617 291.038 99.3901C288.45 96.8913 286.622 97.1265 285.318 97.1265ZM285.644 106.63C286.024 108.169 286.785 110.015 288.088 110.848C284.667 110.812 284.413 109.617 283.924 109.092C283.11 109.907 281.86 111.265 279.254 110.993C280.72 109.635 281.354 108.278 281.607 106.576C282.875 106.775 284.449 106.829 285.644 106.63Z" fill="white"/>
</g>
<defs>
<filter id="filter0_dddd_133_858" x="-80" y="-29" width="593" height="409" filterUnits="userSpaceOnUse" color-interpolation-filters="sRGB">
<feFlood flood-opacity="0" result="BackgroundImageFix"/>
<feColorMatrix in="SourceAlpha" type="matrix" values="0 0 0 0 0 0 0 0 0 0 0 0 0 0 0 0 0 0 127 0" result="hardAlpha"/>
<feOffset dy="2.30969"/>
<feGaussianBlur stdDeviation="1.81152"/>
<feColorMatrix type="matrix" values="0 0 0 0 0.662745 0 0 0 0 0.313726 0 0 0 0 0.768627 0 0 0 0.0278729 0"/>
<feBlend mode="normal" in2="BackgroundImageFix" result="effect1_dropShadow_133_858"/>
<feColorMatrix in="SourceAlpha" type="matrix" values="0 0 0 0 0 0 0 0 0 0 0 0 0 0 0 0 0 0 127 0" result="hardAlpha"/>
<feOffset dy="6.38599"/>
<feGaussianBlur stdDeviation="5.00862"/>
<feColorMatrix type="matrix" values="0 0 0 0 0.662745 0 0 0 0 0.313726 0 0 0 0 0.768627 0 0 0 0.04 0"/>
<feBlend mode="normal" in2="effect1_dropShadow_133_858" result="effect2_dropShadow_133_858"/>
<feColorMatrix in="SourceAlpha" type="matrix" values="0 0 0 0 0 0 0 0 0 0 0 0 0 0 0 0 0 0 127 0" result="hardAlpha"/>
<feOffset dy="15.375"/>
<feGaussianBlur stdDeviation="12.0588"/>
<feColorMatrix type="matrix" values="0 0 0 0 0.662745 0 0 0 0 0.313726 0 0 0 0 0.768627 0 0 0 0.0521271 0"/>
<feBlend mode="normal" in2="effect2_dropShadow_133_858" result="effect3_dropShadow_133_858"/>
<feColorMatrix in="SourceAlpha" type="matrix" values="0 0 0 0 0 0 0 0 0 0 0 0 0 0 0 0 0 0 127 0" result="hardAlpha"/>
<feOffset dy="51"/>
<feGaussianBlur stdDeviation="40"/>
<feColorMatrix type="matrix" values="0 0 0 0 0.662745 0 0 0 0 0.313726 0 0 0 0 0.768627 0 0 0 0.08 0"/>
<feBlend mode="normal" in2="effect3_dropShadow_133_858" result="effect4_dropShadow_133_858"/>
<feBlend mode="normal" in="SourceGraphic" in2="effect4_dropShadow_133_858" result="shape"/>
</filter>
<linearGradient id="paint0_linear_133_858" x1="365.885" y1="33.615" x2="234.265" y2="297.439" gradientUnits="userSpaceOnUse">
<stop stop-color="#DA5B51"/>
<stop offset="1" stop-color="#861D14"/>
</linearGradient>
<clipPath id="clip0_133_858">
<rect width="433" height="249" fill="white"/>
</clipPath>
<clipPath id="clip1_133_858">
<rect width="131.23" height="57.0458" fill="white" transform="translate(75.061 84.6987)"/>
</clipPath>
</defs>
</svg>
