<svg viewBox="0 0 819 1143" fill="none" xmlns="http://www.w3.org/2000/svg">
<g id="figfla3">
<g id="figfla3-shadow" filter="url(#filter0_f_131_664)">
<ellipse class="figfla3-shadow" cx="397.5" cy="1034" rx="317.5" ry="30" fill="#464646" fill-opacity="0.4"/>
</g>
<g id="figfla3-card-front" class="figfla3-card-front" clip-path="url(#clip0_131_664)">
<g id="Rectangle 968" filter="url(#filter1_i_131_664)">
<rect width="525.558" height="333.387" rx="18.198" transform="matrix(0.824126 0.566406 -0.309017 0.951057 130.022 66)" fill="url(#paint0_linear_131_664)"/>
</g>
<text id="jean l castelo branco" transform="matrix(0.824126 0.566406 -0.309017 0.951057 186.57 391.113)" fill="#FEFBFF" xml:space="preserve" style="white-space: pre" font-family="Sora" font-size="17.4701" font-weight="600" letter-spacing="0.1em"><tspan x="0" y="17.9398">JEAN L CASTELO BRANCO</tspan></text>
<circle id="Ellipse 10" cx="33.3027" cy="33.3027" r="33.3027" transform="matrix(0.824126 0.566406 -0.309017 0.951057 442.485 315.257)" fill="#E71924"/>
<circle id="Ellipse 11" cx="33.3027" cy="33.3027" r="33.3027" transform="matrix(0.824126 0.566406 -0.309017 0.951057 475.934 338.247)" fill="#F99F19"/>
<path id="Intersect" fill-rule="evenodd" clip-rule="evenodd" d="M468.244 402.278C476.646 400.968 483.802 394.76 487.126 384.531C490.449 374.303 489.203 362.32 484.565 352.049C476.164 353.358 469.007 359.567 465.684 369.795C462.36 380.023 463.606 392.006 468.244 402.278Z" fill="#F26520"/>
<g id="Group 301">
<rect id="Rectangle 344" x="0.402059" y="1.18443" width="71.2886" height="50.4744" rx="4.42301" transform="matrix(0.824126 0.566406 -0.309017 0.951057 143.167 205.936)" fill="url(#paint1_linear_131_664)" stroke="#211F21" stroke-width="1.56106"/>
<path id="Vector 9" d="M138.281 223.027L155.864 235.111" stroke="#211F21" stroke-width="1.45584" stroke-linecap="round"/>
<path id="Vector 10" d="M133.297 238.368L150.494 250.187" stroke="#211F21" stroke-width="1.45584" stroke-linecap="round"/>
<path id="Vector 11" d="M174.465 266.662L191.619 278.451" stroke="#211F21" stroke-width="1.45584" stroke-linecap="round"/>
<path id="Vector 12" d="M179.031 251.639L196.443 263.605" stroke="#211F21" stroke-width="1.45584" stroke-linecap="round"/>
<circle id="Ellipse 12" cx="1.56106" cy="1.56106" r="1.56106" transform="matrix(0.824126 0.566406 -0.309017 0.951057 169.372 232.287)" fill="#211F21"/>
<g id="Vector 13">
<path d="M222.333 303.753C228.472 296.765 230.513 291.841 230.021 280.091C229.969 278.845 230.611 278.277 231.093 278.407C231.575 278.536 232.185 279.157 232.272 280.428C233.157 293.329 231.074 298.79 224.125 306.309C223.375 307.005 222.532 306.578 222.169 305.873C221.744 305.049 221.814 304.343 222.333 303.753Z" fill="#FEFBFF"/>
<path d="M225.277 277.739C224.768 277.692 224.188 278.442 224.339 279.819C224.973 288.729 223.568 292.609 218.47 297.882C217.933 298.398 217.86 299.326 218.336 299.909C218.899 300.599 219.631 300.458 220.158 299.951C225.812 294.508 227.319 290.185 226.671 279.908C226.611 278.959 226.041 277.81 225.277 277.739Z" fill="#FEFBFF"/>
<path d="M219.943 278.009C219.22 277.814 218.839 278.557 218.871 279.693C219.04 285.602 218.447 288.442 214.932 291.818C214.278 292.378 213.867 293.166 214.503 293.945C215.139 294.724 215.806 294.643 216.245 294.234C220.662 290.177 221.151 286.537 221.069 279.388C221.062 278.777 220.667 278.203 219.943 278.009Z" fill="#FEFBFF"/>
<path d="M214.797 276.893C213.993 276.946 213.658 277.634 213.779 279.221C214.017 282.574 213.516 284.022 211.608 285.901C210.741 286.713 210.161 287.934 210.938 288.771C211.716 289.608 212.211 289.518 213.136 288.465C215.412 285.585 216.186 283.604 216.191 279.062C216.228 277.908 215.816 276.988 214.797 276.893Z" fill="#FEFBFF"/>
</g>
<path id="Vector 14" d="M178.646 244.109C179.102 236.511 177.064 231.216 172.132 227.827C166.129 223.701 162.718 227.81 155.944 234.863C156.232 242.811 155.147 246.241 150.879 250.452C150.588 265.819 152.162 271.695 157.071 274.989C163.504 279.41 167.379 274.376 174.251 266.515C174.278 259.441 175.12 256.105 178.731 251.493" stroke="#211F21" stroke-width="1.45584" stroke-linecap="round"/>
</g>
<g id="Vector" style="mix-blend-mode:soft-light">
<path fill-rule="evenodd" clip-rule="evenodd" d="M221.215 546.445C213.86 537.588 212.222 504.387 216.76 492.103L217.32 490.377C213.364 461.489 207.861 436.82 203.722 420.887L185.88 476.358C179.225 494.579 171.328 503.706 157.606 502.089C166.658 510.211 180.57 522.514 194.052 513.636C194.374 521.656 207.55 542.951 221.215 546.445ZM290.716 443.327C291.182 453.144 288.745 467.931 264.829 472.382C288.292 484.503 301.594 481.826 306.729 469.946C316.087 447.893 309.428 443.099 324.31 414.716C329.279 405.05 337.513 401.633 350.549 399.194C328.463 388.441 311.752 391.517 296.49 413.741L252.184 383.079L281.778 291.995L295.669 301.542C297.575 290.612 298.233 279.036 296.591 264.406L275.234 249.728C264.481 242.337 261.42 234.32 249.562 231.452C255.495 241.864 258.691 252.288 256.225 259.879L222.146 364.764C230.248 377.508 237.473 394.074 242.173 409.964L290.716 443.327ZM348.248 337.679L370.951 353.282C366.187 367.943 371.41 406.988 392.786 422.731C387.764 397.122 387.584 381.378 400.435 359.826C421.874 334.89 421.767 303.163 410.25 290.815C409.724 301.423 402.735 329.122 387.353 326.988L345.234 298.04C344.218 316.343 346.1 333.039 348.248 337.679ZM184.991 453.807C83.1784 429.2 59.6596 351.418 59.3964 259.446C59.0442 247.596 60.8757 240.838 53.462 227.094C65.7142 230.451 70.1726 224.018 74.3942 217.212C97.0001 170.703 138.08 146.606 185.9 160.267L177.772 185.283C141.936 181.969 110.581 217.183 97.5615 261.197C82.9899 311.11 106.031 389.201 146.602 415.605C159.859 424.296 175.358 432.837 192.551 430.52L184.991 453.807ZM231.552 181.725C238.236 185.899 245.37 190.373 252.892 195.333C247.661 205.247 230.326 245.664 240.557 270.419C235.42 275.537 225.133 277.964 217.715 272.662C212.693 269 212.046 265.385 210.75 259.22C210.232 256.332 209.708 253.44 209.24 250.375L231.552 181.725ZM167.008 354.503L149.69 407.802C146.533 406.264 142.949 403.801 138.806 399.691C134.361 395.373 128.163 388.581 123.067 378.956L195.426 156.258C199.91 142.457 194.928 124.052 182.138 106.613C200.306 105.801 225.076 135.282 225.729 150.712C243.955 149.738 263.107 156.567 280.378 168.647C313.275 191.677 339.069 234.304 338.858 281.644C338.608 306.582 335.117 329.72 345.735 346.515C341.607 346.248 337.644 347.124 334.121 349.082C324.091 354.645 314.775 367.019 297.608 378.226C290.807 382.839 283.083 386.389 274.36 389.049L261.214 380.014L267.101 361.895C281.908 351.184 293.993 333.111 300.478 312.03C310.101 281.294 304.77 220.656 258.88 185.315C245.717 175.21 232.705 171.969 226.244 172.172L176.081 326.56C203.564 345.449 219.783 370.315 229.697 395.484C239.234 419.552 243.094 444.791 245.686 469.991C249.375 505.871 250.247 535.803 265.652 545.752C277.379 552.97 284.829 550.284 292.599 545.489C288.821 576.237 266.897 575.098 255.585 567.745C243.58 559.704 233.054 538.119 228.87 516.678C222.378 484.364 219.569 442.973 207.191 408.507C193.576 370.021 177.761 361.893 167.008 354.503ZM140.273 446.914C138.64 463.734 139.2 485.637 147.375 500.962C119.258 481.218 120.863 468.391 118.456 460.621C109.212 463.764 94.7029 469.616 74.037 452.249C90.3402 447.624 99.7706 438.282 107.129 423.504C116.973 432.591 129.797 442.036 140.273 446.914Z" fill="white"/>
</g>
<g id="banco-brb-1 2" clip-path="url(#clip1_131_664)">
<path id="Vector_2" fill-rule="evenodd" clip-rule="evenodd" d="M419.973 625.853C421.687 625.954 423.128 624.92 423.738 623.04C424.094 621.944 424.092 620.801 423.731 619.734C423.324 618.475 422.612 617.621 421.108 616.587L416.174 613.195L416.01 613.518L409.495 626.326C409.017 627.262 408.544 629.161 410.505 630.521L410.504 630.522L413.894 632.852C416.78 634.835 419.55 633.897 420.631 630.572C421.155 628.957 420.89 627.225 419.973 625.853ZM416.257 630.66C415.583 630.719 415.191 630.601 413.886 629.705L411.868 628.318L414.154 623.79L416.284 625.254C418.342 626.669 418.278 627.911 417.944 628.94C417.61 629.969 416.995 630.596 416.257 630.66ZM417.296 622.625L415.41 621.329L417.494 617.244L419.626 618.709C420.854 619.554 421.024 619.83 421.116 620.258C421.194 620.636 421.167 620.974 421.023 621.418C420.424 623.261 418.926 623.746 417.296 622.625ZM429.035 634.134C431.33 635.13 433.772 633.884 434.666 631.132C435.561 628.377 434.567 625.837 431.866 623.981L427.19 620.767L427.026 621.089L420.282 634.412C419.949 635.102 418.951 636.328 421.308 637.945L421.536 638.104L421.701 638.217L421.865 637.893L424.952 631.792L426.314 632.728L426.973 641.551L426.996 641.856L429.844 643.813L429.778 643.022L429.035 634.134ZM426.138 629.467L428.511 624.816L430.513 626.192C432.361 627.462 432.513 628.269 432.146 629.4C431.479 631.452 429.822 631.999 428.023 630.763L426.138 629.467ZM441.833 640.877C443.547 640.977 444.987 639.943 445.598 638.064C445.954 636.968 445.951 635.825 445.59 634.757C445.184 633.499 444.472 632.645 442.967 631.611L438.033 628.219L437.869 628.542L431.368 641.322C430.909 642.259 430.386 644.173 432.365 645.545L432.364 645.546L435.753 647.875C438.639 649.859 441.41 648.921 442.49 645.596C443.015 643.98 442.749 642.249 441.833 640.877ZM438.117 645.684C437.443 645.743 437.05 645.625 435.745 644.728L433.728 643.342L436.013 638.814L438.143 640.278C440.202 641.693 440.138 642.935 439.804 643.963C439.469 644.993 438.854 645.62 438.117 645.684ZM439.155 637.649L437.27 636.353L439.354 632.268L441.485 633.733C442.714 634.577 442.883 634.853 442.976 635.282C443.054 635.66 443.027 635.998 442.883 636.442C442.284 638.285 440.786 638.77 439.155 637.649Z" fill="white"/>
<path id="Vector_3" fill-rule="evenodd" clip-rule="evenodd" d="M397.941 600.66L397.203 602.115C400.043 604.951 402.202 608.63 403.488 612.591L407.432 612.362C407.432 612.362 407.889 612.328 407.982 612.682C407.982 612.682 408.087 612.981 407.64 613.159L404.03 614.492C405.001 618.392 405.127 622.468 404.241 626.216L405.72 627.233L413.703 611.493L397.941 600.66Z" fill="white"/>
<g id="Group">
<path id="Vector_4" fill-rule="evenodd" clip-rule="evenodd" d="M396.953 615.102L396.874 614.799L401.685 612.726C400.541 609.39 398.7 606.299 396.306 603.884L391.614 613.135C390.752 614.882 390.505 616.775 393.258 618.668L402.53 625.04C403.25 621.854 403.155 618.408 402.372 615.095L396.953 615.102Z" fill="white"/>
<path id="Vector_5" d="M398.801 597.854L401.503 593.065L402.293 593.608L401.086 595.752L400.509 596.6L400.083 597.435L399.554 598.371L398.801 597.854ZM400.828 599.309C400.55 599.118 400.327 598.896 400.161 598.645C399.997 598.389 399.897 598.111 399.86 597.811C399.823 597.511 399.859 597.195 399.967 596.863C400.086 596.497 400.232 596.189 400.406 595.939C400.586 595.686 400.788 595.502 401.011 595.387C401.24 595.27 401.481 595.226 401.734 595.257C401.993 595.286 402.262 595.396 402.54 595.587C402.819 595.778 403.047 596.019 403.226 596.309C403.407 596.595 403.521 596.912 403.567 597.26C403.62 597.607 403.587 597.96 403.47 598.322C403.362 598.653 403.215 598.925 403.027 599.137C402.844 599.351 402.633 599.502 402.393 599.588C402.153 599.674 401.894 599.696 401.629 599.654C401.365 599.609 401.098 599.495 400.828 599.309ZM401.019 598.482C401.247 598.639 401.467 598.715 401.68 598.712C401.894 598.704 402.087 598.625 402.26 598.475C402.432 598.325 402.565 598.106 402.659 597.818C402.757 597.515 402.757 597.223 402.658 596.94C402.559 596.657 402.368 596.418 402.086 596.224C401.862 596.07 401.641 595.996 401.423 596.001C401.21 596.004 401.018 596.081 400.845 596.231C400.673 596.381 400.54 596.6 400.446 596.888C400.348 597.191 400.348 597.484 400.447 597.767C400.546 598.049 400.737 598.288 401.019 598.482ZM404.639 601.928C404.365 601.74 404.136 601.499 403.953 601.206C403.774 600.916 403.658 600.597 403.606 600.251C403.559 599.902 403.594 599.548 403.712 599.186C403.82 598.854 403.965 598.581 404.148 598.367C404.336 598.155 404.549 598.006 404.789 597.92C405.026 597.834 405.282 597.813 405.544 597.857C405.812 597.905 406.084 598.022 406.358 598.211C406.64 598.405 406.864 598.63 407.028 598.886C407.197 599.145 407.295 599.431 407.322 599.742C407.352 600.049 407.305 600.375 407.182 600.721C407.017 601.198 406.803 601.571 406.541 601.838C406.28 602.101 405.989 602.244 405.666 602.267C405.344 602.291 405.002 602.178 404.639 601.928ZM405.096 601.284C405.324 601.441 405.544 601.517 405.756 601.514C405.971 601.506 406.164 601.427 406.336 601.277C406.509 601.127 406.642 600.908 406.736 600.62C406.834 600.317 406.834 600.024 406.735 599.741C406.636 599.459 406.445 599.22 406.163 599.026C405.939 598.872 405.718 598.798 405.5 598.803C405.287 598.806 405.095 598.883 404.922 599.033C404.75 599.183 404.617 599.402 404.523 599.69C404.425 599.993 404.425 600.285 404.524 600.569C404.623 600.852 404.814 601.09 405.096 601.284ZM405.687 602.586L406.129 601.797L406.682 600.905L407.129 599.932L407.589 599.111L408.38 599.654L406.439 603.103L405.687 602.586ZM411.269 601.586C411.561 601.786 411.785 602.024 411.943 602.3C412.101 602.576 412.176 602.875 412.169 603.199C412.168 603.52 412.071 603.851 411.878 604.19L410.801 606.101L410.01 605.557L411.074 603.664C411.232 603.385 411.287 603.121 411.239 602.873C411.192 602.62 411.029 602.398 410.751 602.206C410.46 602.006 410.19 601.934 409.939 601.989C409.689 602.044 409.469 602.238 409.278 602.573L408.265 604.357L407.474 603.814L409.415 600.365L410.167 600.883L409.616 601.865L409.604 601.427C409.854 601.259 410.12 601.194 410.402 601.232C410.689 601.268 410.979 601.386 411.269 601.586ZM413.482 608.006C413.149 607.777 412.879 607.505 412.672 607.19C412.471 606.872 412.344 606.54 412.291 606.194C412.241 605.842 412.271 605.493 412.384 605.147C412.527 604.707 412.74 604.376 413.024 604.154C413.31 603.926 413.636 603.819 414.003 603.832C414.371 603.841 414.754 603.981 415.15 604.254C415.492 604.488 415.76 604.768 415.953 605.092C416.153 605.414 416.271 605.773 416.308 606.169L415.5 606.106C415.484 605.868 415.419 605.657 415.304 605.47C415.194 605.287 415.037 605.125 414.835 604.986C414.616 604.835 414.397 604.763 414.178 604.768C413.962 604.768 413.767 604.843 413.595 604.993C413.422 605.144 413.289 605.363 413.195 605.651C413.097 605.953 413.097 606.246 413.196 606.529C413.295 606.812 413.488 607.052 413.775 607.249C413.96 607.376 414.147 607.451 414.336 607.474C414.525 607.496 414.704 607.452 414.874 607.342L415.309 608.196C415.064 608.362 414.779 608.429 414.454 608.396C414.131 608.359 413.807 608.229 413.482 608.006ZM417.089 610.485C416.76 610.259 416.494 609.99 416.292 609.677C416.095 609.363 415.97 609.032 415.917 608.686C415.866 608.334 415.897 607.985 416.01 607.639C416.153 607.199 416.366 606.868 416.65 606.646C416.935 606.418 417.259 606.309 417.622 606.32C417.991 606.328 418.369 606.466 418.757 606.733C419.09 606.961 419.356 607.231 419.555 607.541C419.759 607.848 419.887 608.178 419.938 608.529C419.99 608.876 419.959 609.225 419.845 609.576C419.704 610.01 419.491 610.341 419.205 610.569C418.92 610.797 418.593 610.906 418.224 610.898C417.86 610.892 417.481 610.755 417.089 610.485ZM417.394 609.736C417.622 609.893 417.842 609.97 418.055 609.967C418.269 609.958 418.462 609.879 418.635 609.729C418.807 609.579 418.94 609.36 419.034 609.072C419.132 608.77 419.132 608.477 419.033 608.194C418.934 607.911 418.743 607.672 418.461 607.478C418.237 607.325 418.016 607.25 417.798 607.256C417.585 607.259 417.393 607.335 417.22 607.485C417.048 607.635 416.915 607.855 416.821 608.143C416.721 608.45 416.721 608.745 416.82 609.028C416.92 609.306 417.112 609.542 417.394 609.736Z" fill="white"/>
</g>
</g>
</g>
<g id="figfla3-card-verse" class="figfla3-card-verse" clip-path="url(#clip2_131_664)">
<g id="Rectangle 967" filter="url(#filter2_i_131_664)">
<rect width="513.09" height="325.478" rx="17.7663" transform="matrix(0.777146 -0.62932 0.439155 0.898411 233 636.898)" fill="url(#paint2_linear_131_664)"/>
</g>
<rect id="Rectangle 405" width="513.09" height="76.2839" transform="matrix(0.777146 -0.62932 0.439155 0.898411 243.299 657.967)" fill="#D6D6D6"/>
<rect id="Rectangle 406" width="111.883" height="73.7411" rx="36.8705" transform="matrix(0.777146 -0.62932 0.439155 0.898411 316.786 770.456)" fill="url(#paint3_linear_131_664)"/>
<text id="5032 9334 3764 9846" transform="matrix(0.777146 -0.62932 0.439155 0.898411 356.733 852.178)" fill="#FEFBFF" xml:space="preserve" style="white-space: pre" font-family="Sora" font-size="25.5834" letter-spacing="0.03em"><tspan x="0" y="26.6984">5032 9334 3764 9846</tspan></text>
<text id="gold" transform="matrix(0.777146 -0.62932 0.439155 0.898411 317.656 709.151)" fill="#F7F2FA" xml:space="preserve" style="white-space: pre" font-family="Sora" font-size="25.5834" font-weight="600" letter-spacing="0em"><tspan x="0" y="26.6984">gold</tspan></text>
<text id="02/17" transform="matrix(0.777146 -0.62932 0.439155 0.898411 398.342 871.063)" fill="#FEFBFF" xml:space="preserve" style="white-space: pre" font-family="Sora" font-size="12.7917" letter-spacing="0em"><tspan x="0" y="13.3492">02/17</tspan></text>
<text id="02/20" transform="matrix(0.777146 -0.62932 0.439155 0.898411 454.674 825.446)" fill="#FEFBFF" xml:space="preserve" style="white-space: pre" font-family="Sora" font-size="12.7917" letter-spacing="0em"><tspan x="0" y="13.3492">02/20</tspan></text>
<text id="123" transform="matrix(0.777146 -0.62932 0.439155 0.898411 518.187 774.015)" fill="#FEFBFF" xml:space="preserve" style="white-space: pre" font-family="Sora" font-size="12.7917" letter-spacing="0em"><tspan x="0" y="13.3492">123</tspan></text>
<g id="Group 300">
<text id="cirrus." transform="matrix(0.777146 -0.62932 0.439155 0.898411 709.01 626.619)" fill="#FBF9FC" xml:space="preserve" style="white-space: pre" font-family="Sora" font-size="9.23846" font-weight="600" letter-spacing="0em"><tspan x="0" y="9.64108">cirrus.</tspan></text>
<circle id="Ellipse 7" cx="22.0302" cy="22.0302" r="22.0302" transform="matrix(0.777146 -0.62932 0.439155 0.898411 673.333 599.365)" fill="#0167B2"/>
<circle id="Ellipse 8" cx="22.0302" cy="22.0302" r="22.0302" transform="matrix(0.777146 -0.62932 0.439155 0.898411 694.32 582.371)" fill="#02A1E2"/>
<path id="Intersect_2" fill-rule="evenodd" clip-rule="evenodd" d="M702.839 581.077C708.669 581.402 714.062 584.96 717.183 591.345C720.304 597.73 720.461 605.528 718.166 612.432C712.336 612.108 706.943 608.55 703.822 602.165C700.701 595.78 700.543 587.982 702.839 581.077Z" fill="#207CBD"/>
</g>
<text id="member since" transform="matrix(0.777146 -0.62932 0.439155 0.898411 377.187 890.868)" fill="#FEFBFF" xml:space="preserve" style="white-space: pre" font-family="Source Sans Pro" font-size="4.2639" letter-spacing="0.1em"><tspan x="0" y="4.51582">MEMBER&#10;</tspan><tspan x="0" y="10.5158">SINCE</tspan></text>
<text id="valid thru" transform="matrix(0.777146 -0.62932 0.439155 0.898411 439.042 840.779)" fill="#FEFBFF" xml:space="preserve" style="white-space: pre" font-family="Source Sans Pro" font-size="4.2639" letter-spacing="0.1em"><tspan x="0" y="4.51582">VALID&#10;</tspan><tspan x="0" y="10.5158">THRU</tspan></text>
<text id="security code" transform="matrix(0.777146 -0.62932 0.439155 0.898411 495.375 795.161)" fill="#FEFBFF" xml:space="preserve" style="white-space: pre" font-family="Source Sans Pro" font-size="4.2639" letter-spacing="0.1em"><tspan x="0" y="4.51582">SECURITY&#10;</tspan><tspan x="0" y="10.5158">CODE</tspan></text>
<path id="Vector_6" d="M469.506 612.921C469.672 613.26 469.714 613.679 469.624 614.086C469.534 614.493 469.319 614.855 469.026 615.092L462.398 620.459L461.438 624.802L456.444 614.586C456.279 614.248 456.236 613.829 456.326 613.422C456.416 613.014 456.632 612.652 456.925 612.415L464.657 606.154C464.949 605.917 465.296 605.824 465.62 605.895C465.945 605.967 466.22 606.198 466.385 606.536L469.506 612.921Z" stroke="#FEFBFF" stroke-width="0.710651" stroke-linecap="round" stroke-linejoin="round"/>
<g id="Group 51">
<path id="Vector_7" d="M479.516 647.591C482.566 645.121 483.641 640.261 481.918 636.734C480.194 633.208 476.324 632.352 473.274 634.822C470.224 637.292 469.148 642.153 470.872 645.679C472.596 649.205 476.466 650.061 479.516 647.591Z" stroke="#FEFBFF" stroke-width="0.710651" stroke-linecap="round" stroke-linejoin="round"/>
<path id="Vector_8" d="M473.851 640.593C473.773 640.061 473.853 639.494 474.078 638.992C474.304 638.489 474.659 638.084 475.082 637.849C475.505 637.613 475.968 637.561 476.39 637.703C476.811 637.845 477.163 638.172 477.383 638.624C478.007 639.901 476.663 641.881 476.663 641.881" stroke="#FEFBFF" stroke-width="0.710651" stroke-linecap="round" stroke-linejoin="round"/>
<path id="Vector_9" d="M477.955 644.399L477.961 644.395" stroke="#FEFBFF" stroke-width="0.710651" stroke-linecap="round" stroke-linejoin="round"/>
</g>
<text id="Est&#195;&#161; com d&#195;&#186;vidas? Nosso app pode te ajudar." transform="matrix(0.777146 -0.62932 0.439155 0.898411 471.068 595.615)" fill="#FEFBFF" xml:space="preserve" style="white-space: pre" font-family="Source Sans Pro" font-size="6.39585" letter-spacing="0em"><tspan x="0" y="7.27373">Est&#xe1; com d&#xfa;vidas?&#10;</tspan><tspan x="0" y="17.2737">Nosso app pode te ajudar.</tspan></text>
<text id="Fale com a gente: 0800 591 2117" transform="matrix(0.777146 -0.62932 0.439155 0.898411 484.176 622.43)" fill="#FEFBFF" xml:space="preserve" style="white-space: pre" font-family="Source Sans Pro" font-size="6.39585" letter-spacing="0em"><tspan x="0" y="7.27373">Fale com a gente:&#10;</tspan><tspan x="0" y="17.2737">0800 591 2117</tspan></text>
<circle id="Ellipse 167" cx="22.3855" cy="22.3855" r="22.3855" transform="matrix(0.777146 -0.62932 0.439155 0.898411 362 752.558)" fill="#D9D9D9"/>
<path id="Subtract" fill-rule="evenodd" clip-rule="evenodd" d="M353.789 740.491L345.44 747.252C329.615 760.067 324.035 785.286 332.978 803.58C341.921 821.875 361.999 826.317 377.824 813.502L386.278 806.656C391.663 766.804 386.007 751.143 353.789 740.491Z" fill="url(#paint4_linear_131_664)"/>
</g>
</g>
<defs>
<filter id="filter0_f_131_664" x="13" y="937" width="769" height="194" filterUnits="userSpaceOnUse" color-interpolation-filters="sRGB">
<feFlood flood-opacity="0" result="BackgroundImageFix"/>
<feBlend mode="normal" in="SourceGraphic" in2="BackgroundImageFix" result="shape"/>
<feGaussianBlur stdDeviation="33.5" result="effect1_foregroundBlur_131_664"/>
</filter>
<filter id="filter1_i_131_664" x="31.6349" y="73.4707" width="529.062" height="601.992" filterUnits="userSpaceOnUse" color-interpolation-filters="sRGB">
<feFlood flood-opacity="0" result="BackgroundImageFix"/>
<feBlend mode="normal" in="SourceGraphic" in2="BackgroundImageFix" result="shape"/>
<feColorMatrix in="SourceAlpha" type="matrix" values="0 0 0 0 0 0 0 0 0 0 0 0 0 0 0 0 0 0 127 0" result="hardAlpha"/>
<feOffset dx="2.18376" dy="2.18376"/>
<feGaussianBlur stdDeviation="2.18376"/>
<feComposite in2="hardAlpha" operator="arithmetic" k2="-1" k3="1"/>
<feColorMatrix type="matrix" values="0 0 0 0 1 0 0 0 0 1 0 0 0 0 1 0 0 0 0.25 0"/>
<feBlend mode="normal" in2="shape" result="effect1_innerShadow_131_664"/>
</filter>
<filter id="filter2_i_131_664" x="238.75" y="321.654" width="532.313" height="602.134" filterUnits="userSpaceOnUse" color-interpolation-filters="sRGB">
<feFlood flood-opacity="0" result="BackgroundImageFix"/>
<feBlend mode="normal" in="SourceGraphic" in2="BackgroundImageFix" result="shape"/>
<feColorMatrix in="SourceAlpha" type="matrix" values="0 0 0 0 0 0 0 0 0 0 0 0 0 0 0 0 0 0 127 0" result="hardAlpha"/>
<feOffset dx="2.13195" dy="2.13195"/>
<feGaussianBlur stdDeviation="2.13195"/>
<feComposite in2="hardAlpha" operator="arithmetic" k2="-1" k3="1"/>
<feColorMatrix type="matrix" values="0 0 0 0 1 0 0 0 0 1 0 0 0 0 1 0 0 0 0.25 0"/>
<feBlend mode="normal" in2="shape" result="effect1_innerShadow_131_664"/>
</filter>
<linearGradient id="paint0_linear_131_664" x1="93.7968" y1="287.979" x2="296.786" y2="-40.9149" gradientUnits="userSpaceOnUse">
<stop stop-color="#DA5B51"/>
<stop offset="1" stop-color="#211F21"/>
</linearGradient>
<linearGradient id="paint1_linear_131_664" x1="66.7148" y1="7.18998" x2="5.56958" y2="47.9535" gradientUnits="userSpaceOnUse">
<stop stop-color="#F4F4F4"/>
<stop offset="1" stop-color="#D6D6D6"/>
</linearGradient>
<linearGradient id="paint2_linear_131_664" x1="433.561" y1="43.9395" x2="251.639" y2="374.509" gradientUnits="userSpaceOnUse">
<stop stop-color="#DA5B51"/>
<stop offset="1" stop-color="#211F21"/>
</linearGradient>
<linearGradient id="paint3_linear_131_664" x1="58.984" y1="73.9077" x2="89.8973" y2="4.2639" gradientUnits="userSpaceOnUse">
<stop stop-color="#F6F3F7"/>
<stop offset="1" stop-color="#D6D6D6"/>
</linearGradient>
<linearGradient id="paint4_linear_131_664" x1="357.835" y1="741.671" x2="367.137" y2="817.472" gradientUnits="userSpaceOnUse">
<stop stop-color="#F5F5F5"/>
<stop offset="1" stop-color="#D6D6D6"/>
</linearGradient>
<clipPath id="clip0_131_664">
<rect width="525.558" height="333.387" fill="white" transform="matrix(0.824126 0.566406 -0.309017 0.951057 130.022 66)"/>
</clipPath>
<clipPath id="clip1_131_664">
<rect width="61.8732" height="26.933" fill="white" transform="matrix(0.824126 0.566406 -0.309017 0.951057 398.518 590.981)"/>
</clipPath>
<clipPath id="clip2_131_664">
<rect width="513.09" height="325.478" fill="white" transform="matrix(0.777146 -0.62932 0.439155 0.898411 233 636.898)"/>
</clipPath>
</defs>
</svg>
