<svg width="722" height="458" viewBox="0 0 722 458" fill="none" xmlns="http://www.w3.org/2000/svg">
<g clip-path="url(#clip0_42_34)">
<g filter="url(#filter0_i_42_34)">
<rect width="722" height="458" rx="25" fill="url(#paint0_linear_42_34)"/>
</g>
<text fill="#FEFBFF" xml:space="preserve" style="white-space: pre" font-family="Sora" font-size="24" font-weight="600" letter-spacing="0.1em"><tspan x="221" y="363.16">JEAN L CASTELO BRANCO</tspan></text>
<circle cx="581.889" cy="86.497" r="45.7505" fill="#E71924"/>
<circle cx="637.648" cy="86.497" r="45.7505" fill="#F99F19"/>
<path fill-rule="evenodd" clip-rule="evenodd" d="M609.768 122.595C620.636 114.23 627.64 101.092 627.64 86.3172C627.64 71.5427 620.636 58.404 609.768 50.0395C598.9 58.404 591.897 71.5427 591.897 86.3172C591.897 101.092 598.9 114.23 609.768 122.595Z" fill="#F26520"/>
<rect x="80.4209" y="156.195" width="97.9347" height="69.3406" rx="6.07624" fill="url(#paint1_linear_42_34)" stroke="#211F21" stroke-width="2.14455"/>
<path d="M80.7783 178.713H110.087" stroke="#211F21" stroke-width="2" stroke-linecap="round"/>
<path d="M80.7783 200.873H109.445" stroke="#211F21" stroke-width="2" stroke-linecap="round"/>
<path d="M149.404 200.873H177.998" stroke="#211F21" stroke-width="2" stroke-linecap="round"/>
<path d="M148.974 179.428H177.998" stroke="#211F21" stroke-width="2" stroke-linecap="round"/>
<circle cx="129.388" cy="166.561" r="2.14455" fill="#211F21"/>
<path d="M231.053 205.824C236.325 192.59 236.926 185.119 231.053 171.645C230.43 170.215 231.053 169.024 231.768 168.786C232.483 168.547 233.589 168.786 234.27 170.215C241.188 184.73 240.767 192.87 234.628 207.387C233.913 208.817 232.575 208.998 231.768 208.46C230.825 207.831 230.608 206.941 231.053 205.824Z" fill="#FEFBFF"/>
<path d="M223.547 172.717C222.833 173.075 222.375 174.43 223.19 175.934C227.999 185.94 227.802 191.662 223.19 202.026C222.687 203.071 222.998 204.226 223.905 204.528C224.977 204.886 225.913 204.125 226.407 203.098C231.701 192.084 231.841 185.756 226.407 174.147C225.905 173.075 224.62 172.181 223.547 172.717Z" fill="#FEFBFF"/>
<path d="M216.399 177.364C215.327 177.721 215.137 178.908 215.684 180.223C218.53 187.063 218.979 190.898 215.684 197.737C215.042 198.929 214.83 200.193 216.041 200.596C217.253 201 218.126 200.363 218.543 199.524C222.766 191.149 221.82 186.454 218.543 178.079C218.264 177.364 217.471 177.006 216.399 177.364Z" fill="#FEFBFF"/>
<path d="M208.893 180.223C207.821 180.938 207.668 182.022 208.535 183.797C210.344 187.564 210.303 189.68 208.535 193.448C207.714 195.11 207.463 197.022 208.893 197.38C210.323 197.737 210.958 197.229 211.752 195.235C213.578 189.987 213.756 187.02 211.752 181.653C211.291 180.261 210.323 179.508 208.893 180.223Z" fill="#FEFBFF"/>
<path d="M145.115 170.849C142.372 161.508 137.252 156.91 129.031 156.91C119.023 156.91 116.194 164.53 110.087 178.355C113.998 187.507 114.039 192.437 110.087 200.873C116.494 219.254 121.24 224.915 129.388 224.821C140.111 224.821 143.163 215.733 149.047 200.873C145.952 192.497 145.622 187.875 148.5 179.5" stroke="#211F21" stroke-width="2" stroke-linecap="round"/>
<g style="mix-blend-mode:soft-light">
<path fill-rule="evenodd" clip-rule="evenodd" d="M336.983 493.299C323.039 488.81 306.107 450.936 306.852 432.749V430.256C288.67 399.356 270.249 374.692 257.554 359.238L257.803 439.217C256.801 466.134 250.081 483.319 230.667 492.545C246.598 494.789 271.002 498.028 285.443 476.602C289.432 485.811 316.816 500.264 336.983 493.299ZM386.032 315.136C391.014 326.35 394.242 345.788 363.622 370.452C400.961 365.723 417.902 351.768 419.639 333.572C422.627 299.939 411.43 299.682 419.143 254.089C421.634 238.644 431.341 227.927 448.025 214.468C413.168 219.694 391.759 236.887 380.802 275.515L306.852 275.266V143.698H330.007C327.764 129.246 323.535 115.042 314.821 99.0997H279.22C261.295 99.0997 253.574 92.1178 236.146 98.3544C248.84 105.833 257.811 115.548 257.811 126.513V278.016C274.495 286.489 291.675 300.187 305.114 315.136H386.032ZM417.653 143.698H455.497C455.497 164.875 479.902 206.741 516 207.983C497.818 181.82 490.602 163.376 498.572 127.499C516.745 80.6555 502.552 43.2788 481.392 38.0445C485.372 50.9974 488.111 89.3765 466.206 99.3396H395.996C402.716 121.776 412.671 139.963 417.653 143.698ZM246.606 413.311C96.9761 466.879 30.49 394.122 -10.5897 285.735C-16.3164 272.028 -16.8129 262.562 -33 252.35C-14.8184 246.371 -11.5913 235.157 -8.85205 223.695C1.36011 150.432 46.6686 88.6397 117.88 65.9635V102.098C67.5808 127.267 40.4454 194.293 42.1916 256.831C44.4344 327.592 110.407 401.103 177.381 399.356C199.295 398.859 224.196 396.366 246.598 379.678L246.606 413.311ZM189.587 54.2528C200.544 53.7559 212.246 53.2505 224.692 53.002C221.953 68.9533 216.226 130.745 241.128 151.674C236.394 161.885 223.451 173.099 210.996 172.859C202.53 172.611 200.048 168.867 195.554 162.639C193.568 159.65 191.573 156.66 189.579 153.422L189.587 54.2528ZM178.134 310.647V387.637C173.152 388.382 167.177 388.382 159.713 386.891C151.743 385.401 140.29 382.411 129.085 375.18V53.4989C129.085 33.5641 114.148 15.8737 88.9981 5.66216C113.394 -10.0407 160.201 4.66841 167.922 22.3588C192.327 6.41603 221.448 -1.06274 250.33 -0.814306C305.354 -0.317434 359.376 29.0837 380.049 85.1531C390.749 114.803 396.236 144.958 418.141 156.171C412.398 159.205 407.386 163.456 403.452 168.628C392.247 183.337 385.031 205.507 366.601 232.673C359.376 243.638 350.423 254.098 339.714 264.318H317.8V238.147C333.234 213.483 341.7 182.334 341.203 152.179C340.707 108.078 306.595 40.803 228.416 36.314C206.006 35.0632 186.84 41.7967 178.126 47.2794V270.289C223.939 270.289 257.049 286.489 281.702 308.163C305.354 328.843 321.789 355.511 336.478 383.165C357.39 422.537 371.831 457.173 397.229 456.419C416.404 455.425 425.366 446.207 433.832 434.24C442.298 473.612 411.918 490.061 393.249 490.557C373.329 490.806 349.43 473.861 334.236 451.939C311.081 419.051 288.927 372.456 256.801 341.804C221.208 307.409 196.059 310.647 178.134 310.647ZM182.62 441.461C187.841 462.647 198.302 488.056 216.226 499.518C169.172 499.021 165.679 482.573 158.96 475.352C147.754 486.565 130.574 505.249 94.7248 501.514C114.892 482.822 123.606 464.138 127.09 440.716C144.527 443.458 166.184 444.203 182.62 441.461Z" fill="white"/>
</g>
<g clip-path="url(#clip1_42_34)">
<path fill-rule="evenodd" clip-rule="evenodd" d="M642.676 425.765C645.056 424.492 646.561 422.103 646.561 419.388C646.561 417.805 646.051 416.457 645.087 415.489C643.975 414.334 642.627 413.903 640.119 413.903L631.894 413.902L631.814 414.416L628.607 434.827C628.37 436.32 628.567 438.946 631.84 438.96L631.84 438.962H637.491C642.302 438.962 645.661 435.606 645.661 430.803C645.661 428.47 644.533 426.641 642.676 425.765ZM639.741 434.456C638.849 435.073 638.262 435.252 636.087 435.252H632.723L633.833 428.052H637.383C640.815 428.052 641.278 429.57 641.278 431.056C641.278 432.543 640.717 433.783 639.741 434.456ZM637.599 424.126H634.455L635.487 417.611H639.04C641.088 417.611 641.441 417.8 641.757 418.23C642.029 418.614 642.143 419.035 642.143 419.676C642.143 422.338 640.317 424.126 637.599 424.126ZM658.69 428.189C662.26 427.502 665.034 424.05 665.034 420.074C665.034 416.094 662.556 413.902 658.054 413.902H650.258L650.178 414.415L646.886 435.621C646.739 436.705 645.922 438.962 649.849 438.96L650.23 438.962H650.504L650.584 438.447L652.09 428.737H654.36L659.165 438.619L659.331 438.962H664.079L663.638 438.08L658.69 428.189ZM652.676 425.029L653.852 417.611H657.188C660.269 417.611 660.833 418.441 660.833 420.074C660.833 423.038 658.818 425.029 655.819 425.029H652.676ZM679.115 425.765C681.495 424.492 683 422.103 683 419.388C683 417.805 682.491 416.458 681.526 415.489C680.415 414.334 679.066 413.903 676.559 413.903L668.333 413.902L668.253 414.416L665.052 434.783C664.841 436.262 664.976 438.946 668.281 438.96L668.28 438.962H673.929C678.74 438.962 682.1 435.606 682.1 430.803C682.1 428.47 680.971 426.641 679.115 425.765ZM676.179 434.456C675.288 435.073 674.7 435.252 672.525 435.252H669.163L670.271 428.052H673.821C677.255 428.052 677.717 429.57 677.717 431.056C677.717 432.543 677.156 433.783 676.179 434.456ZM674.038 424.126H670.894L671.926 417.611H675.478C677.527 417.611 677.879 417.8 678.196 418.23C678.469 418.614 678.582 419.035 678.582 419.676C678.582 422.338 676.756 424.126 674.038 424.126Z" fill="white"/>
<path fill-rule="evenodd" clip-rule="evenodd" d="M601.499 413.898L601.138 416.214C606.263 417.258 610.835 419.849 614.341 423.484L619.613 420.012C619.613 420.012 620.222 419.601 620.504 419.944C620.504 419.944 620.78 420.212 620.25 420.784L615.921 425.288C618.97 429.105 620.948 433.816 621.399 438.961H623.865L627.775 413.896L601.499 413.898Z" fill="white"/>
<path fill-rule="evenodd" clip-rule="evenodd" d="M606.548 431.751L606.306 431.458L611.944 425.105C608.908 422.095 605.03 419.939 600.699 419.031L598.401 433.762C598 436.524 598.501 438.96 603.092 438.96L618.547 438.961C618.118 434.613 616.462 430.622 613.929 427.346L606.548 431.751Z" fill="white"/>
<path d="M601.43 409.885L602.99 402.038H604.308L603.612 405.549L603.201 407.019L602.99 408.351L602.684 409.885H601.43ZM604.835 409.959C604.371 409.959 603.971 409.878 603.633 409.715C603.296 409.546 603.036 409.299 602.853 408.975C602.67 408.651 602.579 408.249 602.579 407.769C602.579 407.241 602.642 406.758 602.769 406.321C602.902 405.877 603.096 405.496 603.349 405.179C603.609 404.854 603.918 404.608 604.276 404.438C604.642 404.262 605.057 404.174 605.521 404.174C605.985 404.174 606.403 404.273 606.775 404.47C607.148 404.661 607.443 404.942 607.661 405.316C607.886 405.683 607.998 406.127 607.998 406.648C607.998 407.128 607.918 407.569 607.756 407.97C607.601 408.372 607.38 408.721 607.092 409.017C606.803 409.314 606.459 409.551 606.079 409.715C605.7 409.878 605.285 409.959 604.835 409.959ZM604.73 408.827C605.109 408.827 605.443 408.739 605.732 408.563C606.02 408.379 606.248 408.129 606.417 407.812C606.586 407.495 606.67 407.128 606.67 406.712C606.67 406.275 606.54 405.93 606.28 405.676C606.02 405.422 605.654 405.295 605.183 405.295C604.811 405.295 604.477 405.387 604.182 405.57C603.893 405.746 603.665 405.993 603.496 406.31C603.328 406.627 603.243 406.994 603.243 407.41C603.243 407.847 603.373 408.192 603.633 408.446C603.893 408.7 604.259 408.827 604.73 408.827ZM611.188 409.959C610.732 409.959 610.313 409.86 609.934 409.663C609.561 409.465 609.262 409.183 609.038 408.816C608.82 408.443 608.711 407.995 608.711 407.473C608.711 406.994 608.788 406.553 608.943 406.152C609.104 405.75 609.329 405.401 609.618 405.105C609.902 404.811 610.243 404.577 610.619 404.417C611.006 404.255 611.428 404.174 611.884 404.174C612.355 404.174 612.759 404.259 613.097 404.428C613.441 404.597 613.701 404.854 613.877 405.2C614.053 405.538 614.134 405.961 614.119 406.469C614.105 407.167 613.979 407.78 613.74 408.309C613.501 408.83 613.167 409.236 612.738 409.525C612.309 409.814 611.793 409.959 611.188 409.959ZM611.526 408.827C611.905 408.827 612.239 408.739 612.527 408.563C612.816 408.379 613.044 408.129 613.213 407.812C613.381 407.495 613.466 407.128 613.466 406.712C613.466 406.275 613.336 405.93 613.076 405.676C612.816 405.422 612.45 405.295 611.979 405.295C611.607 405.295 611.273 405.387 610.978 405.57C610.689 405.746 610.461 405.993 610.292 406.31C610.124 406.627 610.039 406.994 610.039 407.41C610.039 407.847 610.169 408.192 610.429 408.446C610.689 408.701 611.055 408.827 611.526 408.827ZM612.907 409.885L613.16 408.594L613.518 407.093L613.698 405.58L613.961 404.238H615.279L614.162 409.885H612.907ZM620.072 404.174C620.557 404.174 620.968 404.273 621.306 404.47C621.643 404.667 621.878 404.96 622.012 405.348C622.153 405.729 622.167 406.197 622.054 406.754L621.432 409.885H620.114L620.726 406.786C620.817 406.328 620.775 405.972 620.599 405.718C620.423 405.457 620.104 405.327 619.64 405.327C619.155 405.327 618.754 405.461 618.438 405.729C618.121 405.996 617.907 406.405 617.795 406.955L617.204 409.885H615.886L617.004 404.238H618.258L617.942 405.845L617.731 405.337C617.998 404.935 618.332 404.643 618.733 404.46C619.141 404.269 619.587 404.174 620.072 404.174ZM625.93 409.959C625.374 409.959 624.886 409.856 624.464 409.652C624.049 409.44 623.729 409.151 623.504 408.785C623.28 408.411 623.167 407.974 623.167 407.473C623.167 406.839 623.311 406.275 623.599 405.781C623.888 405.281 624.285 404.89 624.791 404.608C625.297 404.318 625.88 404.174 626.541 404.174C627.11 404.174 627.599 404.287 628.007 404.512C628.421 404.731 628.741 405.059 628.966 405.496L627.838 406.078C627.711 405.81 627.529 405.612 627.29 405.485C627.058 405.358 626.773 405.295 626.436 405.295C626.07 405.295 625.74 405.387 625.445 405.57C625.149 405.746 624.917 405.993 624.749 406.31C624.58 406.627 624.496 406.994 624.496 407.41C624.496 407.847 624.626 408.192 624.886 408.446C625.146 408.7 625.515 408.827 625.993 408.827C626.302 408.827 626.59 408.764 626.857 408.637C627.124 408.51 627.349 408.312 627.532 408.044L628.502 408.7C628.242 409.095 627.884 409.405 627.427 409.631C626.97 409.849 626.471 409.959 625.93 409.959ZM631.942 409.959C631.394 409.959 630.912 409.856 630.497 409.652C630.09 409.44 629.773 409.151 629.549 408.785C629.324 408.411 629.211 407.974 629.211 407.473C629.211 406.839 629.355 406.275 629.643 405.781C629.932 405.281 630.325 404.89 630.824 404.608C631.33 404.318 631.907 404.174 632.553 404.174C633.109 404.174 633.59 404.276 633.998 404.481C634.413 404.678 634.733 404.964 634.957 405.337C635.182 405.704 635.295 406.141 635.295 406.648C635.295 407.276 635.151 407.84 634.863 408.341C634.574 408.841 634.177 409.236 633.671 409.525C633.172 409.814 632.596 409.959 631.942 409.959ZM632.026 408.827C632.406 408.827 632.74 408.739 633.028 408.563C633.316 408.379 633.545 408.129 633.713 407.812C633.882 407.495 633.966 407.128 633.966 406.712C633.966 406.275 633.836 405.93 633.576 405.676C633.316 405.422 632.951 405.295 632.48 405.295C632.107 405.295 631.773 405.387 631.478 405.57C631.19 405.746 630.961 405.993 630.793 406.31C630.624 406.627 630.54 406.994 630.54 407.41C630.54 407.854 630.67 408.203 630.93 408.457C631.19 408.704 631.555 408.827 632.026 408.827Z" fill="white"/>
</g>
</g>
<defs>
<filter id="filter0_i_42_34" x="0" y="0" width="725" height="461" filterUnits="userSpaceOnUse" color-interpolation-filters="sRGB">
<feFlood flood-opacity="0" result="BackgroundImageFix"/>
<feBlend mode="normal" in="SourceGraphic" in2="BackgroundImageFix" result="shape"/>
<feColorMatrix in="SourceAlpha" type="matrix" values="0 0 0 0 0 0 0 0 0 0 0 0 0 0 0 0 0 0 127 0" result="hardAlpha"/>
<feOffset dx="3" dy="3"/>
<feGaussianBlur stdDeviation="3"/>
<feComposite in2="hardAlpha" operator="arithmetic" k2="-1" k3="1"/>
<feColorMatrix type="matrix" values="0 0 0 0 1 0 0 0 0 1 0 0 0 0 1 0 0 0 0.25 0"/>
<feBlend mode="normal" in2="shape" result="effect1_innerShadow_42_34"/>
</filter>
<linearGradient id="paint0_linear_42_34" x1="128.856" y1="395.619" x2="407.718" y2="-56.208" gradientUnits="userSpaceOnUse">
<stop stop-color="#DA5B51"/>
<stop offset="1" stop-color="#211F21"/>
</linearGradient>
<linearGradient id="paint1_linear_42_34" x1="171" y1="165" x2="87" y2="221" gradientUnits="userSpaceOnUse">
<stop stop-color="#F4F4F4"/>
<stop offset="1" stop-color="#D6D6D6"/>
</linearGradient>
<clipPath id="clip0_42_34">
<rect width="722" height="458" fill="white"/>
</clipPath>
<clipPath id="clip1_42_34">
<rect width="85" height="37" fill="white" transform="translate(598 402)"/>
</clipPath>
</defs>
</svg>
