<svg width="48" height="48" viewBox="0 0 48 48" fill="none" xmlns="http://www.w3.org/2000/svg">
<path d="M32 8H16C11.5817 8 8 11.5817 8 16V32C8 36.4183 11.5817 40 16 40H32C36.4183 40 40 36.4183 40 32V16C40 11.5817 36.4183 8 32 8Z" stroke="#EDEAEF" stroke-width="2" stroke-linecap="round" stroke-linejoin="round"/>
<path d="M30.4 22.9922C30.5974 24.3238 30.37 25.6838 29.75 26.8787C29.13 28.0735 28.149 29.0425 26.9466 29.6477C25.7441 30.2529 24.3815 30.4636 23.0524 30.2497C21.7234 30.0359 20.4956 29.4084 19.5437 28.4565C18.5918 27.5046 17.9643 26.2768 17.7505 24.9478C17.5366 23.6187 17.7473 22.2561 18.3525 21.0536C18.9577 19.8512 19.9267 18.8702 21.1215 18.2502C22.3164 17.6302 23.6764 17.4028 25.008 17.6002C26.3662 17.8017 27.6237 18.4346 28.5947 19.4055C29.5656 20.3765 30.1986 21.634 30.4 22.9922Z" stroke="#EDEAEF" stroke-width="2" stroke-linecap="round" stroke-linejoin="round"/>
<path d="M32.7999 15.199H32.8168" stroke="#EDEAEF" stroke-width="2" stroke-linecap="round" stroke-linejoin="round"/>
</svg>
