<svg viewBox="0 0 104 41" fill="none" xmlns="http://www.w3.org/2000/svg">
<g clip-path="url(#clip0_68_318)">
<path fill-rule="evenodd" clip-rule="evenodd" d="M25.3547 19.6752C26.7054 18.9541 27.5595 17.5996 27.5595 16.0608C27.5595 15.1637 27.2701 14.3999 26.7229 13.8514C26.0919 13.1967 25.327 12.9523 23.9036 12.9523L19.2358 12.9519L19.1901 13.243L17.37 24.8111C17.2357 25.6571 17.3476 27.1453 19.205 27.1535L19.2046 27.1545H22.4119C25.1421 27.1545 27.0487 25.2528 27.0487 22.5305C27.0487 21.2082 26.4082 20.1715 25.3547 19.6752ZM23.6887 24.6007C23.1823 24.9505 22.8494 25.0521 21.615 25.0521H19.7062L20.336 20.9711H22.3508C24.2984 20.9711 24.561 21.8317 24.561 22.6738C24.561 23.5168 24.2429 24.2192 23.6887 24.6007ZM22.4731 18.7462H20.6892L21.2745 15.054H23.2911C24.4532 15.054 24.6536 15.161 24.8328 15.4051C24.9876 15.6224 25.0518 15.861 25.0518 16.2244C25.0518 17.733 24.0154 18.7462 22.4731 18.7462ZM34.4429 21.0493C36.4686 20.6599 38.0433 18.7031 38.0433 16.45C38.0433 14.1943 36.6366 12.9521 34.0816 12.9521H29.6575L29.6118 13.2429L27.744 25.2609C27.6602 25.8756 27.1965 27.1547 29.4253 27.1534L29.6416 27.1543H29.7971L29.8427 26.8625L30.6972 21.3597H31.9856L34.7123 26.9604L34.8066 27.1543H37.5009L37.2507 26.655L34.4429 21.0493ZM31.0297 19.258L31.6969 15.0542H33.5904C35.3389 15.0542 35.6591 15.5244 35.6591 16.45C35.6591 18.1296 34.5156 19.258 32.8137 19.258H31.0297ZM46.0344 19.6752C47.385 18.9541 48.2392 17.5996 48.2392 16.0608C48.2392 15.1637 47.9501 14.4003 47.4026 13.8514C46.7719 13.1967 46.0066 12.9523 44.5836 12.9523L39.9151 12.9519L39.8698 13.243L38.0534 24.7863C37.9337 25.6246 38.0104 27.1453 39.8857 27.1535L39.8854 27.1545H43.0914C45.8218 27.1545 47.7284 25.2528 47.7284 22.5305C47.7284 21.2082 47.0879 20.1715 46.0344 19.6752ZM44.3684 24.6011C43.8627 24.9505 43.529 25.0521 42.2943 25.0521H40.3863L41.0153 20.9711H43.0302C44.9787 20.9711 45.241 21.8317 45.241 22.6738C45.241 23.5168 44.9226 24.2192 44.3684 24.6011ZM43.1528 18.7462H41.3689L41.9543 15.054H43.9704C45.1332 15.054 45.3329 15.161 45.5128 15.4051C45.6676 15.6224 45.7318 15.861 45.7318 16.2244C45.7318 17.733 44.6955 18.7462 43.1528 18.7462Z" fill="#171717"/>
<path fill-rule="evenodd" clip-rule="evenodd" d="M1.98612 12.9494L1.78125 14.2623C4.68975 14.8541 7.28424 16.3224 9.27384 18.3825L12.2661 16.4148C12.2661 16.4148 12.6113 16.1816 12.7718 16.3763C12.7718 16.3763 12.9283 16.5279 12.6275 16.8522L10.1705 19.4049C11.9011 21.5682 13.0236 24.238 13.2795 27.154H14.6792L16.8978 12.9487L1.98612 12.9494Z" fill="#171717"/>
<path fill-rule="evenodd" clip-rule="evenodd" d="M4.85112 23.0675L4.71388 22.9015L7.91342 19.3011C6.19064 17.5948 3.98982 16.3733 1.53155 15.8584L0.227874 24.207C1.71661e-05 25.7725 0.284625 27.1535 2.8896 27.1535L11.6609 27.1538C11.4175 24.6898 10.4778 22.4279 9.03993 20.571L4.85112 23.0675Z" fill="#171717"/>
<path d="M1.94635 10.6747L2.83195 6.22754H3.57994L3.18504 8.21733L2.9517 9.05046L2.83195 9.80552L2.65848 10.6747H1.94635ZM3.87911 10.7166C3.61588 10.7166 3.3885 10.6707 3.19696 10.5788C3.00552 10.4829 2.85787 10.343 2.7542 10.1592C2.65044 9.97539 2.59861 9.74764 2.59861 9.47593C2.59861 9.17627 2.63455 8.90257 2.70634 8.65483C2.78211 8.40311 2.89183 8.18739 3.0355 8.00758C3.18306 7.82379 3.35851 7.68395 3.56197 7.58798C3.76949 7.48813 4.00481 7.4382 4.26805 7.4382C4.53137 7.4382 4.76869 7.4941 4.98018 7.60598C5.19158 7.71398 5.35918 7.87371 5.48281 8.08545C5.6105 8.29322 5.67425 8.54493 5.67425 8.84061C5.67425 9.11232 5.62837 9.36205 5.53663 9.5898C5.44885 9.81756 5.32324 10.0154 5.1597 10.1832C4.99576 10.3513 4.8006 10.4856 4.58519 10.5788C4.36982 10.6707 4.13449 10.7166 3.87911 10.7166ZM3.81933 10.0752C4.0347 10.0752 4.22416 10.0253 4.38779 9.92556C4.55133 9.82163 4.68101 9.67971 4.77673 9.4999C4.87245 9.32018 4.92031 9.11242 4.92031 8.87661C4.92031 8.62887 4.84653 8.43314 4.69898 8.28924C4.55133 8.14542 4.3439 8.07352 4.0766 8.07352C3.86521 8.07352 3.67575 8.12543 3.50815 8.22936C3.34451 8.32922 3.21493 8.46905 3.11921 8.64886C3.02349 8.82868 2.97563 9.03644 2.97563 9.27224C2.97563 9.51989 3.04941 9.71562 3.19696 9.85962C3.34451 10.0033 3.55203 10.0752 3.81933 10.0752ZM7.48462 10.7166C7.22536 10.7166 6.98804 10.6607 6.77258 10.5488C6.56118 10.437 6.39159 10.2771 6.26399 10.0693C6.14027 9.85754 6.07851 9.60383 6.07851 9.30815C6.07851 9.03644 6.12239 8.78671 6.21008 8.55896C6.30182 8.33121 6.42951 8.13339 6.59315 7.96561C6.75481 7.7991 6.94809 7.66665 7.16161 7.57605C7.38095 7.48415 7.62035 7.4382 7.87951 7.4382C8.1469 7.4382 8.37627 7.48614 8.56771 7.58201C8.76322 7.67789 8.91078 7.82379 9.01047 8.01952C9.11026 8.21136 9.15613 8.45105 9.14809 8.73877C9.14015 9.1343 9.06836 9.48199 8.93272 9.78165C8.79708 10.0772 8.60763 10.3071 8.36426 10.4709C8.12089 10.6348 7.82768 10.7166 7.48462 10.7166ZM7.67615 10.0752C7.89152 10.0752 8.08098 10.0253 8.24461 9.92556C8.40815 9.82163 8.53782 9.67971 8.63355 9.4999C8.72927 9.32018 8.77713 9.11242 8.77713 8.87661C8.77713 8.62887 8.70335 8.43314 8.5558 8.28924C8.40815 8.14542 8.20072 8.07352 7.93342 8.07352C7.72203 8.07352 7.53248 8.12543 7.36496 8.22936C7.20133 8.32922 7.07175 8.46905 6.97603 8.64886C6.88031 8.82868 6.83245 9.03644 6.83245 9.27224C6.83245 9.51989 6.90623 9.71562 7.05378 9.85962C7.20133 10.0036 7.40885 10.0752 7.67615 10.0752ZM8.45998 10.6747L8.60366 9.94346L8.80701 9.09243L8.90879 8.23533L9.05833 7.4742H9.80631L9.17212 10.6747H8.45998ZM12.5262 7.4382C12.8015 7.4382 13.0349 7.4941 13.2263 7.60598C13.4179 7.71787 13.5514 7.88366 13.6273 8.10345C13.707 8.31927 13.7151 8.58491 13.6512 8.90058L13.2981 10.6747H12.5501L12.8973 8.91858C12.9491 8.65891 12.9252 8.45711 12.8255 8.3132C12.7257 8.16541 12.5442 8.09152 12.281 8.09152C12.0057 8.09152 11.7783 8.1674 11.5988 8.31927C11.4193 8.47104 11.2975 8.70277 11.2338 9.01446L10.8987 10.6747H10.1507L10.785 7.4742H11.497L11.3175 8.38521L11.1979 8.09749C11.3495 7.86973 11.5389 7.70394 11.7663 7.60011C11.9977 7.49211 12.251 7.4382 12.5262 7.4382ZM15.8505 10.7166C15.5354 10.7166 15.2581 10.6586 15.0187 10.5428C14.7834 10.4229 14.6019 10.2591 14.4742 10.0514C14.3466 9.83954 14.2828 9.59189 14.2828 9.30815C14.2828 8.94852 14.3646 8.62887 14.5281 8.34921C14.6917 8.06546 14.9171 7.84378 15.2043 7.68395C15.4915 7.52005 15.8226 7.4382 16.1975 7.4382C16.5207 7.4382 16.798 7.50215 17.0293 7.62995C17.2647 7.75387 17.4462 7.93965 17.5739 8.18739L16.9336 8.51708C16.8617 8.36522 16.7581 8.25333 16.6224 8.18142C16.4908 8.10942 16.3292 8.07342 16.1378 8.07342C15.9302 8.07342 15.7428 8.12553 15.5753 8.22936C15.4078 8.32922 15.2761 8.46905 15.1804 8.64886C15.0846 8.82868 15.0367 9.03644 15.0367 9.27224C15.0367 9.51989 15.1105 9.71562 15.2581 9.85962C15.4057 10.0033 15.6152 10.0753 15.8865 10.0753C16.0619 10.0753 16.2255 10.0393 16.3771 9.96743C16.5287 9.89543 16.6563 9.78364 16.76 9.63177L17.3105 10.0033C17.163 10.2271 16.9595 10.4029 16.7002 10.5308C16.4409 10.6547 16.1576 10.7166 15.8505 10.7166ZM19.2627 10.7166C18.9516 10.7166 18.6783 10.6586 18.4429 10.5428C18.2116 10.4229 18.032 10.2591 17.9044 10.0514C17.7767 9.83954 17.7129 9.59189 17.7129 9.30815C17.7129 8.94852 17.7947 8.62887 17.9583 8.34921C18.1218 8.06546 18.3452 7.84378 18.6284 7.68395C18.9157 7.52005 19.2427 7.4382 19.6097 7.4382C19.9249 7.4382 20.1981 7.49609 20.4296 7.61205C20.6649 7.72384 20.8464 7.88575 20.974 8.09749C21.1017 8.30525 21.1656 8.55299 21.1656 8.84061C21.1656 9.19626 21.0837 9.51591 20.9202 9.79965C20.7567 10.0833 20.5313 10.3071 20.244 10.4709C19.9608 10.6348 19.6337 10.7166 19.2627 10.7166ZM19.3105 10.0752C19.526 10.0752 19.7155 10.0253 19.879 9.92556C20.0426 9.82163 20.1722 9.67971 20.2679 9.4999C20.3638 9.32018 20.4116 9.11242 20.4116 8.87661C20.4116 8.62887 20.3377 8.43314 20.1902 8.28924C20.0426 8.14533 19.8351 8.07352 19.5679 8.07352C19.3564 8.07352 19.167 8.12543 18.9995 8.22936C18.8358 8.32922 18.7062 8.46905 18.6105 8.64886C18.5147 8.82868 18.4668 9.03644 18.4668 9.27224C18.4668 9.52387 18.5406 9.72168 18.6883 9.86549C18.8358 10.0054 19.0433 10.0752 19.3105 10.0752Z" fill="#171717"/>
</g>
<path fill-rule="evenodd" clip-rule="evenodd" d="M87.1444 40.9457C81.9272 38.9095 77.7417 36.0882 74.8206 32.1817C71.786 28.116 70.2888 22.8856 70.2888 15.5991V0.806396H104V15.5991C104 22.8856 102.503 28.1158 99.4685 32.1817C96.5469 36.0882 92.3614 38.9095 87.1444 40.9457Z" fill="black"/>
<path fill-rule="evenodd" clip-rule="evenodd" d="M87.1443 39.788C84.8021 38.8495 82.6659 37.7518 80.7693 36.4276H93.5192C91.6225 37.7516 89.4869 38.8495 87.1443 39.788ZM75.8052 31.663C74.8001 30.3122 73.9552 28.8013 73.2764 27.1113H101.012C100.333 28.8013 99.4883 30.312 98.4833 31.663H75.8052ZM71.8191 21.8079C71.5862 20.4235 71.4398 18.9463 71.3798 17.3693H102.902C102.849 18.9465 102.702 20.4238 102.469 21.8079H71.8191ZM87.7035 7.00815H102.935V12.232H87.7035V7.00815ZM71.3533 1.87769H86.6319V16.2979H71.3533V1.87769Z" fill="#CD3529"/>
<path fill-rule="evenodd" clip-rule="evenodd" d="M81.5346 15.6526C81.162 15.5327 80.7094 14.5213 80.7293 14.0356V13.969C80.2434 13.1438 79.7511 12.4851 79.4118 12.0724L79.4184 14.2083C79.3916 14.9271 79.212 15.3861 78.6932 15.6325C79.1189 15.6924 79.7712 15.7789 80.1571 15.2067C80.2638 15.4527 80.9956 15.8386 81.5346 15.6526ZM82.8456 10.8946C82.9787 11.1941 83.065 11.7132 82.2466 12.3719C83.2446 12.2456 83.6973 11.8729 83.7438 11.387C83.8236 10.4888 83.5244 10.4819 83.7305 9.26431C83.7971 8.85181 84.0565 8.5656 84.5024 8.20618C83.5708 8.34574 82.9986 8.80491 82.7058 9.83649L80.7293 9.82986V6.31621H81.3482C81.2882 5.93025 81.1752 5.55093 80.9423 5.12516H79.9908C79.5117 5.12516 79.3054 4.9387 78.8396 5.10526C79.1789 5.30498 79.4186 5.56442 79.4186 5.85727V9.9033C79.8645 10.1296 80.3237 10.4954 80.6829 10.8946H82.8456ZM83.6907 6.31621H84.7021C84.7021 6.88176 85.3544 7.99982 86.3192 8.03299C85.8333 7.33429 85.6404 6.84172 85.8534 5.88358C86.3391 4.63259 85.9598 3.63441 85.3942 3.49462C85.5006 3.84054 85.5738 4.86549 84.9884 5.13157H83.1119C83.2915 5.73075 83.5575 6.21646 83.6907 6.31621ZM79.1192 13.5165C75.12 14.947 73.3431 13.004 72.2451 10.1094C72.0921 9.74338 72.0788 9.49057 71.6462 9.21786C72.1321 9.05817 72.2184 8.75869 72.2916 8.45258C72.5645 6.49603 73.7755 4.84582 75.6787 4.24023V5.20524C74.3344 5.8774 73.6091 7.6674 73.6558 9.33752C73.7158 11.2273 75.479 13.1905 77.269 13.1438C77.8547 13.1305 78.5202 13.0639 79.1189 12.6183L79.1192 13.5165ZM77.5952 3.92748C77.8881 3.91421 78.2008 3.90071 78.5335 3.89408C78.4603 4.32007 78.3072 5.97029 78.9727 6.5292C78.8462 6.80191 78.5003 7.10139 78.1674 7.09498C77.9411 7.08835 77.8748 6.98837 77.7547 6.82205C77.7016 6.7422 77.6483 6.66235 77.595 6.57588L77.5952 3.92748ZM77.2891 10.7747V12.8308C77.156 12.8507 76.9963 12.8507 76.7968 12.8109C76.5838 12.7711 76.2777 12.6912 75.9782 12.4982V3.90735C75.9782 3.37497 75.579 2.90253 74.9068 2.62982C75.5588 2.21046 76.8098 2.60328 77.0162 3.07572C77.6684 2.64996 78.4468 2.45023 79.2187 2.45686C80.6893 2.47013 82.1331 3.25532 82.6857 4.7527C82.9716 5.54452 83.1183 6.34984 83.7037 6.64931C83.5502 6.73034 83.4163 6.84386 83.3111 6.98197C83.0117 7.37479 82.8188 7.96688 82.3262 8.69235C82.1331 8.98519 81.8938 9.26453 81.6076 9.53747H81.0219V8.83854C81.4344 8.17987 81.6607 7.34802 81.6474 6.5427C81.6342 5.36493 80.7225 3.56829 78.633 3.44841C78.034 3.41501 77.5218 3.59483 77.2889 3.74125V9.69693C78.5133 9.69693 79.3983 10.1296 80.0572 10.7084C80.6893 11.2607 81.1286 11.9729 81.5211 12.7114C82.0801 13.7629 82.466 14.6878 83.1448 14.6677C83.6573 14.6412 83.8968 14.395 84.1231 14.0754C84.3494 15.1269 83.5374 15.5661 83.0384 15.5794C82.5061 15.586 81.8673 15.1335 81.4612 14.5481C80.8423 13.6698 80.2503 12.4254 79.3916 11.6068C78.4404 10.6883 77.7682 10.7747 77.2891 10.7747ZM77.409 14.2683C77.5486 14.834 77.8281 15.5126 78.3072 15.8187C77.0496 15.8054 76.9562 15.3662 76.7766 15.1733C76.4772 15.4728 76.018 15.9718 75.0599 15.872C75.5989 15.3728 75.8318 14.8738 75.9249 14.2483C76.3909 14.3216 76.9697 14.3415 77.409 14.2683Z" fill="white"/>
<defs>
<clipPath id="clip0_68_318">
<rect width="48.2392" height="20.9696" fill="white" transform="translate(0 6.20654)"/>
</clipPath>
</defs>
</svg>
