<svg width="104" height="41" viewBox="0 0 104 41" fill="none" xmlns="http://www.w3.org/2000/svg">
<g clip-path="url(#clip0_77_933)">
<path fill-rule="evenodd" clip-rule="evenodd" d="M25.3547 18.8688C26.7054 18.1477 27.5595 16.7932 27.5595 15.2544C27.5595 14.3573 27.2701 13.5935 26.7229 13.045C26.0919 12.3903 25.327 12.1459 23.9036 12.1459L19.2358 12.1455L19.1901 12.4366L17.37 24.0047C17.2357 24.8507 17.3476 26.3389 19.205 26.3471L19.2046 26.3481H22.4119C25.1421 26.3481 27.0487 24.4464 27.0487 21.7241C27.0487 20.4018 26.4082 19.3651 25.3547 18.8688ZM23.6887 23.7944C23.1823 24.1441 22.8494 24.2457 21.615 24.2457H19.7062L20.336 20.1647H22.3508C24.2984 20.1647 24.561 21.0253 24.561 21.8674C24.561 22.7104 24.2429 23.4128 23.6887 23.7944ZM22.4731 17.9398H20.6892L21.2745 14.2476H23.2911C24.4532 14.2476 24.6536 14.3546 24.8328 14.5987C24.9876 14.816 25.0518 15.0546 25.0518 15.418C25.0518 16.9266 24.0154 17.9398 22.4731 17.9398ZM34.4429 20.2429C36.4686 19.8535 38.0433 17.8967 38.0433 15.6436C38.0433 13.3879 36.6366 12.1457 34.0816 12.1457H29.6575L29.6118 12.4365L27.744 24.4545C27.6602 25.0692 27.1965 26.3483 29.4253 26.347L29.6416 26.3479H29.7971L29.8427 26.0561L30.6972 20.5534H31.9856L34.7123 26.154L34.8066 26.3479H37.5009L37.2507 25.8486L34.4429 20.2429ZM31.0297 18.4516L31.6969 14.2478H33.5904C35.3389 14.2478 35.6591 14.718 35.6591 15.6436C35.6591 17.3232 34.5156 18.4516 32.8137 18.4516H31.0297ZM46.0344 18.8688C47.385 18.1477 48.2392 16.7932 48.2392 15.2544C48.2392 14.3573 47.9501 13.5939 47.4026 13.045C46.7719 12.3903 46.0066 12.1459 44.5836 12.1459L39.9151 12.1455L39.8698 12.4366L38.0534 23.9799C37.9337 24.8182 38.0104 26.3389 39.8857 26.3471L39.8854 26.3481H43.0914C45.8218 26.3481 47.7284 24.4464 47.7284 21.7241C47.7284 20.4018 47.0879 19.3651 46.0344 18.8688ZM44.3684 23.7947C43.8627 24.1441 43.529 24.2457 42.2943 24.2457H40.3863L41.0153 20.1647H43.0302C44.9787 20.1647 45.241 21.0253 45.241 21.8674C45.241 22.7104 44.9226 23.4128 44.3684 23.7947ZM43.1528 17.9398H41.3689L41.9543 14.2476H43.9704C45.1332 14.2476 45.3329 14.3546 45.5128 14.5987C45.6676 14.816 45.7318 15.0546 45.7318 15.418C45.7318 16.9266 44.6955 17.9398 43.1528 17.9398Z" fill="#F7F2FA"/>
<path fill-rule="evenodd" clip-rule="evenodd" d="M1.98612 12.143L1.78125 13.4559C4.68975 14.0477 7.28424 15.516 9.27384 17.5761L12.2661 15.6084C12.2661 15.6084 12.6113 15.3752 12.7718 15.5699C12.7718 15.5699 12.9283 15.7215 12.6275 16.0458L10.1705 18.5985C11.9011 20.7618 13.0236 23.4316 13.2795 26.3476H14.6792L16.8978 12.1423L1.98612 12.143Z" fill="#F7F2FA"/>
<path fill-rule="evenodd" clip-rule="evenodd" d="M4.85112 22.2611L4.71388 22.0951L7.91342 18.4947C6.19064 16.7884 3.98982 15.5669 1.53155 15.052L0.227874 23.4006C1.71661e-05 24.9661 0.284625 26.3471 2.8896 26.3471L11.6609 26.3474C11.4175 23.8834 10.4778 21.6215 9.03993 19.7646L4.85112 22.2611Z" fill="#F7F2FA"/>
<path d="M1.94635 9.86826L2.83195 5.42114H3.57994L3.18504 7.41093L2.9517 8.24406L2.83195 8.99913L2.65848 9.86826H1.94635ZM3.87911 9.91023C3.61588 9.91023 3.3885 9.86428 3.19696 9.77238C3.00552 9.67651 2.85787 9.53658 2.7542 9.35279C2.65044 9.16899 2.59861 8.94124 2.59861 8.66953C2.59861 8.36988 2.63455 8.09618 2.70634 7.84843C2.78211 7.59671 2.89183 7.381 3.0355 7.20118C3.18306 7.01739 3.35851 6.87756 3.56197 6.78159C3.76949 6.68173 4.00481 6.6318 4.26805 6.6318C4.53137 6.6318 4.76869 6.6877 4.98018 6.79959C5.19158 6.90759 5.35918 7.06732 5.48281 7.27906C5.6105 7.48682 5.67425 7.73854 5.67425 8.03422C5.67425 8.30593 5.62837 8.55566 5.53663 8.78341C5.44885 9.01116 5.32324 9.20897 5.1597 9.37675C4.99576 9.54486 4.8006 9.67925 4.58519 9.77238C4.36982 9.86428 4.13449 9.91023 3.87911 9.91023ZM3.81933 9.26885C4.0347 9.26885 4.22416 9.21892 4.38779 9.11916C4.55133 9.01523 4.68101 8.87331 4.77673 8.6935C4.87245 8.51378 4.92031 8.30602 4.92031 8.07022C4.92031 7.82248 4.84653 7.62675 4.69898 7.48284C4.55133 7.33903 4.3439 7.26712 4.0766 7.26712C3.86521 7.26712 3.67575 7.31904 3.50815 7.42296C3.34451 7.52282 3.21493 7.66265 3.11921 7.84247C3.02349 8.02228 2.97563 8.23004 2.97563 8.46585C2.97563 8.71349 3.04941 8.90922 3.19696 9.05322C3.34451 9.19694 3.55203 9.26885 3.81933 9.26885ZM7.48462 9.91023C7.22536 9.91023 6.98804 9.85433 6.77258 9.74244C6.56118 9.63056 6.39159 9.47074 6.26399 9.26288C6.14027 9.05114 6.07851 8.79743 6.07851 8.50175C6.07851 8.23004 6.12239 7.98031 6.21008 7.75256C6.30182 7.52481 6.42951 7.32699 6.59315 7.15921C6.75481 6.9927 6.94809 6.86025 7.16161 6.76965C7.38095 6.67775 7.62035 6.6318 7.87951 6.6318C8.1469 6.6318 8.37627 6.67974 8.56771 6.77562C8.76322 6.87149 8.91078 7.01739 9.01047 7.21312C9.11026 7.40496 9.15613 7.64465 9.14809 7.93237C9.14015 8.32791 9.06836 8.6756 8.93272 8.97525C8.79708 9.27084 8.60763 9.50067 8.36426 9.66448C8.12089 9.82837 7.82768 9.91023 7.48462 9.91023ZM7.67615 9.26885C7.89152 9.26885 8.08098 9.21892 8.24461 9.11916C8.40815 9.01523 8.53782 8.87331 8.63355 8.6935C8.72927 8.51378 8.77713 8.30602 8.77713 8.07022C8.77713 7.82248 8.70335 7.62675 8.5558 7.48284C8.40815 7.33903 8.20072 7.26712 7.93342 7.26712C7.72203 7.26712 7.53248 7.31904 7.36496 7.42296C7.20133 7.52282 7.07175 7.66265 6.97603 7.84247C6.88031 8.02228 6.83245 8.23004 6.83245 8.46585C6.83245 8.71349 6.90623 8.90922 7.05378 9.05322C7.20133 9.19723 7.40885 9.26885 7.67615 9.26885ZM8.45998 9.86826L8.60366 9.13707L8.80701 8.28603L8.90879 7.42893L9.05833 6.66781H9.80631L9.17212 9.86826H8.45998ZM12.5262 6.6318C12.8015 6.6318 13.0349 6.6877 13.2263 6.79959C13.4179 6.91147 13.5514 7.07726 13.6273 7.29706C13.707 7.51287 13.7151 7.77852 13.6512 8.09419L13.2981 9.86826H12.5501L12.8973 8.11219C12.9491 7.85251 12.9252 7.65072 12.8255 7.50681C12.7257 7.35902 12.5442 7.28512 12.281 7.28512C12.0057 7.28512 11.7783 7.36101 11.5988 7.51287C11.4193 7.66464 11.2975 7.89637 11.2338 8.20806L10.8987 9.86826H10.1507L10.785 6.66781H11.497L11.3175 7.57881L11.1979 7.29109C11.3495 7.06334 11.5389 6.89755 11.7663 6.79371C11.9977 6.68571 12.251 6.6318 12.5262 6.6318ZM15.8505 9.91023C15.5354 9.91023 15.2581 9.85225 15.0187 9.73638C14.7834 9.61654 14.6019 9.45274 14.4742 9.24497C14.3466 9.03314 14.2828 8.78549 14.2828 8.50175C14.2828 8.14212 14.3646 7.82248 14.5281 7.54281C14.6917 7.25907 14.9171 7.03738 15.2043 6.87756C15.4915 6.71366 15.8226 6.6318 16.1975 6.6318C16.5207 6.6318 16.798 6.69575 17.0293 6.82356C17.2647 6.94747 17.4462 7.13325 17.5739 7.381L16.9336 7.71069C16.8617 7.55882 16.7581 7.44693 16.6224 7.37503C16.4908 7.30303 16.3292 7.26703 16.1378 7.26703C15.9302 7.26703 15.7428 7.31913 15.5753 7.42296C15.4078 7.52282 15.2761 7.66265 15.1804 7.84247C15.0846 8.02228 15.0367 8.23004 15.0367 8.46585C15.0367 8.71349 15.1105 8.90922 15.2581 9.05322C15.4057 9.19694 15.6152 9.26894 15.8865 9.26894C16.0619 9.26894 16.2255 9.23294 16.3771 9.16104C16.5287 9.08903 16.6563 8.97724 16.76 8.82538L17.3105 9.19694C17.163 9.42071 16.9595 9.59655 16.7002 9.72444C16.4409 9.84827 16.1576 9.91023 15.8505 9.91023ZM19.2627 9.91023C18.9516 9.91023 18.6783 9.85225 18.4429 9.73638C18.2116 9.61654 18.032 9.45274 17.9044 9.24497C17.7767 9.03314 17.7129 8.78549 17.7129 8.50175C17.7129 8.14212 17.7947 7.82248 17.9583 7.54281C18.1218 7.25907 18.3452 7.03738 18.6284 6.87756C18.9157 6.71366 19.2427 6.6318 19.6097 6.6318C19.9249 6.6318 20.1981 6.68969 20.4296 6.80565C20.6649 6.91744 20.8464 7.07935 20.974 7.29109C21.1017 7.49885 21.1656 7.74659 21.1656 8.03422C21.1656 8.38986 21.0837 8.70951 20.9202 8.99325C20.7567 9.2769 20.5313 9.50067 20.244 9.66448C19.9608 9.82837 19.6337 9.91023 19.2627 9.91023ZM19.3105 9.26885C19.526 9.26885 19.7155 9.21892 19.879 9.11916C20.0426 9.01523 20.1722 8.87331 20.2679 8.6935C20.3638 8.51378 20.4116 8.30602 20.4116 8.07022C20.4116 7.82248 20.3377 7.62675 20.1902 7.48284C20.0426 7.33893 19.8351 7.26712 19.5679 7.26712C19.3564 7.26712 19.167 7.31904 18.9995 7.42296C18.8358 7.52282 18.7062 7.66265 18.6105 7.84247C18.5147 8.02228 18.4668 8.23004 18.4668 8.46585C18.4668 8.71747 18.5406 8.91528 18.6883 9.0591C18.8358 9.19903 19.0433 9.26885 19.3105 9.26885Z" fill="#F7F2FA"/>
</g>
<path fill-rule="evenodd" clip-rule="evenodd" d="M87.1444 40.1393C81.9272 38.1031 77.7417 35.2818 74.8206 31.3753C71.786 27.3096 70.2888 22.0792 70.2888 14.7927V0H104V14.7927C104 22.0792 102.503 27.3094 99.4685 31.3753C96.5469 35.2818 92.3614 38.1031 87.1444 40.1393Z" fill="black"/>
<path fill-rule="evenodd" clip-rule="evenodd" d="M87.1443 38.9816C84.8021 38.0431 82.6659 36.9454 80.7693 35.6212H93.5192C91.6225 36.9452 89.4869 38.0431 87.1443 38.9816ZM75.8052 30.8566C74.8001 29.5058 73.9552 27.9949 73.2764 26.3049H101.012C100.333 27.9949 99.4883 29.5056 98.4833 30.8566H75.8052ZM71.8191 21.0015C71.5862 19.6171 71.4398 18.1399 71.3798 16.5629H102.902C102.849 18.1401 102.702 19.6174 102.469 21.0015H71.8191ZM87.7035 6.20175H102.935V11.4256H87.7035V6.20175ZM71.3533 1.07129H86.6319V15.4915H71.3533V1.07129Z" fill="#CD3529"/>
<path fill-rule="evenodd" clip-rule="evenodd" d="M81.5346 14.8462C81.162 14.7263 80.7094 13.7149 80.7293 13.2292V13.1626C80.2434 12.3374 79.7511 11.6787 79.4118 11.266L79.4184 13.4019C79.3916 14.1207 79.212 14.5797 78.6932 14.8261C79.1189 14.886 79.7712 14.9725 80.1571 14.4003C80.2638 14.6463 80.9956 15.0322 81.5346 14.8462ZM82.8456 10.0882C82.9787 10.3877 83.065 10.9068 82.2466 11.5655C83.2446 11.4392 83.6973 11.0665 83.7438 10.5806C83.8236 9.68236 83.5244 9.67549 83.7305 8.45791C83.7971 8.04541 84.0565 7.75921 84.5024 7.39979C83.5708 7.53934 82.9986 7.99851 82.7058 9.0301L80.7293 9.02346V5.50981H81.3482C81.2882 5.12385 81.1752 4.74453 80.9423 4.31876H79.9908C79.5117 4.31876 79.3054 4.13231 78.8396 4.29886C79.1789 4.49859 79.4186 4.75803 79.4186 5.05087V9.0969C79.8645 9.32317 80.3237 9.68899 80.6829 10.0882H82.8456ZM83.6907 5.50981H84.7021C84.7021 6.07536 85.3544 7.19342 86.3192 7.2266C85.8333 6.52789 85.6404 6.03532 85.8534 5.07718C86.3391 3.82619 85.9598 2.82801 85.3942 2.68823C85.5006 3.03415 85.5738 4.0591 84.9884 4.32517H83.1119C83.2915 4.92435 83.5575 5.41006 83.6907 5.50981ZM79.1192 12.7101C75.12 14.1407 73.3431 12.1976 72.2451 9.30303C72.0921 8.93698 72.0788 8.68418 71.6462 8.41147C72.1321 8.25178 72.2184 7.9523 72.2916 7.64619C72.5645 5.68963 73.7755 4.03942 75.6787 3.43383V4.39884C74.3344 5.071 73.6091 6.861 73.6558 8.53112C73.7158 10.4209 75.479 12.3841 77.269 12.3374C77.8547 12.3241 78.5202 12.2575 79.1189 11.8119L79.1192 12.7101ZM77.5952 3.12108C77.8881 3.10782 78.2008 3.09432 78.5335 3.08768C78.4603 3.51368 78.3072 5.16389 78.9727 5.72281C78.8462 5.99552 78.5003 6.29499 78.1674 6.28859C77.9411 6.28195 77.8748 6.18197 77.7547 6.01565C77.7016 5.9358 77.6483 5.85596 77.595 5.76948L77.5952 3.12108ZM77.2891 9.96834V12.0244C77.156 12.0443 76.9963 12.0443 76.7968 12.0045C76.5838 11.9647 76.2777 11.8849 75.9782 11.6918V3.10095C75.9782 2.56857 75.579 2.09614 74.9068 1.82343C75.5588 1.40407 76.8098 1.79689 77.0162 2.26933C77.6684 1.84356 78.4468 1.64383 79.2187 1.65047C80.6893 1.66374 82.1331 2.44892 82.6857 3.94631C82.9716 4.73812 83.1183 5.54344 83.7037 5.84292C83.5502 5.92394 83.4163 6.03746 83.3111 6.17557C83.0117 6.56839 82.8188 7.16048 82.3262 7.88595C82.1331 8.17879 81.8938 8.45814 81.6076 8.73108H81.0219V8.03214C81.4344 7.37348 81.6607 6.54162 81.6474 5.7363C81.6342 4.55853 80.7225 2.7619 78.633 2.64201C78.034 2.60861 77.5218 2.78843 77.2889 2.93486V8.89054C78.5133 8.89054 79.3983 9.32317 80.0572 9.90199C80.6893 10.4543 81.1286 11.1665 81.5211 11.905C82.0801 12.9565 82.466 13.8814 83.1448 13.8613C83.6573 13.8348 83.8968 13.5886 84.1231 13.269C84.3494 14.3205 83.5374 14.7597 83.0384 14.773C82.5061 14.7796 81.8673 14.3271 81.4612 13.7417C80.8423 12.8634 80.2503 11.619 79.3916 10.8004C78.4404 9.88186 77.7682 9.96834 77.2891 9.96834ZM77.409 13.4619C77.5486 14.0276 77.8281 14.7062 78.3072 15.0123C77.0496 14.999 76.9562 14.5598 76.7766 14.3669C76.4772 14.6664 76.018 15.1654 75.0599 15.0656C75.5989 14.5664 75.8318 14.0674 75.9249 13.442C76.3909 13.5152 76.9697 13.5351 77.409 13.4619Z" fill="white"/>
<defs>
<clipPath id="clip0_77_933">
<rect width="48.2392" height="20.9696" fill="white" transform="translate(0 5.40015)"/>
</clipPath>
</defs>
</svg>
